<svg width="500" height="500" version="1.0" viewBox="0 0 375 375"><defs><clipPath id="a"><path d="M70 166h118v64.828H70Zm0 0"/></clipPath><clipPath id="b"><path d="M124 209h12v7h-12Zm0 0"/></clipPath><clipPath id="c"><path d="M130.04 212.316c2.276-1.183 3.483-1.968 5.472-3.035-1.547 1.586-3.172 2.895-5.078 3.973-2.008 1.137-4.157 1.922-6.387 2.422-.176.035.23-.754.242-.938.023-.683.582-1.101 1.129-1.59.941-.035 4.121-.578 4.621-.832m0 0"/></clipPath><clipPath id="e"><path d="M130 176h68v38h-68Zm0 0"/></clipPath><clipPath id="f"><path d="M197.246 198.863c-3.52-1.515-8.676-3.175-12.3-3.465-.813-.054-18.34 3.57-28.157 6.258-.172.047-.348.094-.512.14-.16.044-.324.09-.476.138a.3.3 0 0 1-.102.023c-.117.035-.234.07-.351.094l-.578.172c-.5.152-.977.289-1.407.43a.4.4 0 0 0-.129.046c-2.843.914-5.457 1.797-7.539 2.559h-.011a11 11 0 0 0-.485.176l-.281.105c-.43.16-1.824.566-1.914.625-2.336 1.297-4.426 2.492-6.727 3.777-1.695.95-3.53 1.98-5.261 2.954-.082.046-.106.058-.2.117-.09.058-.277.16-.394.218 2.148-1.98 6.945-6.882 7.297-7.253.441-.45.812-.95 1.219-1.446 1.859-2.273 3.914-4.394 5.832-6.617a87 87 0 0 0 2.625-3.223c.707-.914 1.414-1.851 2.113-2.765 2.066-2.692 4.191-5.332 6.722-7.578 1.36-1.22 2.825-2.157 4.348-3.164.824-.543 1.719-.961 2.637-1.38.914-.417 1.95-.706 2.832-1.214-2.613 1.633-4.738 3.277-6.574 5.781 4.379-3.488 8.886-5.934 14.242-7.601-2.094 1.066-4.426 2.421-5.75 4.39.441-.496 1.937-.754 2.39-.914 1.188-.43 1.989-.73 3.043-1.078.653-.219 1.235-.371 1.872-.543.312-.094.617-.187.906-.305.289-.113.488-.254.789-.289.012 0 .023-.011.035 0 .012.012.012-.011.012.024s.011.093-.024.164c-.035.058-.117.125-.172.183-.43.336-.78.707-1.035 1.196-.058.113-.094.254 0 .336.094.09.176.09.29.113.835.094 1.64-.125 2.429-.371.406-.125.777-.242 1.172-.367a69 69 0 0 0 1.172-.395c.676-.234 1.324-.523 2.023-.66.535-.106 1.09-.223 1.602-.348a83 83 0 0 0 2.3-.594c-1 .954-1.207 1.985-2.46 3.036-2.848 2.41-4.95 5.527-7.739 8.261l-.023.024s-.012.012-.012.023c-.277.278-1.36 1.285-1.765 1.668l-.094.094c-.012.012-.031.023-.024.023h.012c.012 0 .012 0 .012.012.023.012.035.024.07.024.106.058.223.113.328.16.383.187.766.336 1.149.535 0-.012 0-.024-.012-.024v-.023c-.047-.164-.106-.324-.152-.488 4.148-.625 8.515-1.563 12.66-.473 3.3 2.559 5.844 5.606 8.527 8.7m0 0"/></clipPath><clipPath id="h"><path d="M69.227 152H183v58H69.227Zm0 0"/></clipPath><clipPath id="i"><path d="M121.422 159.563c-.129-.938-.777-1.516-2.16-1.446-.082 0-.176.012-.27.024-5.11.52-6.027 9.242-12.254 10.832 4.867.207 8.157-2.293 10.582-6.293.29 3.36-1.113 6.039-3.703 8.02.254-.036.543-.141.86-.29.043-.023.09-.047.136-.082.047-.023.094-.058.14-.082a1 1 0 0 0 .153-.094c.047-.035.102-.066.149-.101.023-.024.047-.035.082-.059.453-.324.941-.754 1.43-1.242.058-.055.105-.113.16-.16 2.175-2.246 4.39-5.793 4.695-8.121a4 4 0 0 0 0-.906m60.656 6.917c-.012 0-.012-.035-.023-.058 0-.012-.012-.024-.024-.035-.023-.035-.058-.055-.105-.078-.106-.047-.211-.094-.324-.106-.141-.023-.293-.023-.442-.023a.7.7 0 0 0-.164.011c-.152.024-.266.118-.418.16a.7.7 0 0 1-.312 0c-.106-.019-.188-.019-.293-.019-.254 0-.508-.012-.766-.023-.172-.012-.348-.012-.523-.024-.137-.012-.278-.012-.418-.023a45 45 0 0 1-2.66-.254c-.348-.047-.684-.094-1.032-.14-.43-.06-.86-.13-1.289-.2-.305-.043-.617-.102-.93-.148l-.187-.036c-.348-.058-.695-.129-1.043-.183-.305-.059-.617-.117-.918-.176-.305-.059-.617-.117-.918-.184-2.254-.441-4.508-.918-6.75-1.277-.047-.012-.082-.012-.117-.023a40 40 0 0 1-.672-.102 1 1 0 0 0-.187-.023c-.29-.047-.567-.082-.848-.13 0 0 .012 0 .012-.011.011-.012.023-.012.035-.023.152-.114.3-.23.441-.336.082-.059.164-.125.246-.184.055-.047.102-.082.16-.129.082-.058.153-.125.235-.183.125-.094.254-.2.394-.301.07-.047.137-.106.207-.164s.14-.118.223-.16c.012 0 .012-.012.023-.012.325-.246.707-.512 1.09-.778.059-.046.13-.082.188-.128.035-.024.058-.036.094-.059.023-.012.035-.023.054-.031.012-.012.024-.012.024-.024-.024-.047-.383-.047-.313-.093.024-.024.824-.243.965-.36h.023l.012-.012c.012-.011.024-.011.035-.023 0 0 .012 0 .012-.012 0-.011.012-.011.012-.011.011 0 .011-.012.023-.012.047-.024.09-.07.16-.117a4 4 0 0 1 .164-.102c.07-.047.153-.105.22-.152.116-.07.222-.16.362-.23q.366-.246.825-.555c.441-.305.894-.606 1.336-.895q.399-.26.789-.52c.289-.187.57-.37.836-.558q.176-.115.335-.219c.305-.199.57-.37.801-.523.012-.012.024-.012.024-.02.047-.035.117-.07.175-.117.047-.035.106-.07.165-.105.043-.024.078-.059.113-.082.058-.032.129-.079.187-.114a.3.3 0 0 0 .082-.082c.024-.023.047-.035.082-.058a.4.4 0 0 1 .207-.047c.036 0 .07 0 .106.011.14.024.266.083.394.13.153.046.301.07.442.136.047.024.082.047.117.059h.035a.4.4 0 0 0 .113-.024c.012 0 .012-.011.024-.023 0 0 .012-.012.012-.02.023-.035.023-.105.023-.152v-.082c.012-.137.047-.277.094-.406.082-.184.199-.36.324-.508.117-.153.246-.29.406-.395.293-.195.664-.23 1.012-.265.895-.094 1.79-.211 2.672-.348.336-.059.672-.117.988-.266-.305.024-.605.024-.906.024-.059 0-.129-.012-.188-.012a5 5 0 0 0-.43-.023c-.253-.024-.488-.059-.683-.07-.176-.024-.316-.036-.394-.048h-.153c-.094-.011-.105-.011-.222-.011-.137-.012-.348-.024-.485-.035-.035 0-.058 0-.094-.012h-.07c-.047 0-.094-.012-.129-.012h-.058c-.09 0-.024 0-.114-.012-.093-.011-.257-.035-.375-.046h-.03c-.118-.012-.306-.012-.4-.024-.09-.012-.011 0-.113-.012-.105-.011-.222-.02-.382-.043-.164-.023-.512-.07-.711-.093-.184-.024-.348-.047-.536-.07l-.894-.106c-.125-.012-.266-.024-.406-.043-.36-.047-.73-.082-1.102-.129l-.547-.07c-.023-.012-.058-.012-.082-.012-.125-.012-.37-.047-.476-.059-.09-.011-.102-.011-.149-.023a24 24 0 0 0-.836-.09c-.629-.07-1.257-.14-1.882-.187l-.465-.036-1.149-.07c-.387-.02-.77-.031-1.152-.043-.184-.012-.36-.012-.524-.012-.464-.011-.937 0-1.39.024-.352.012-.711.031-1.059.055a4 4 0 0 0-.441.047c-.14.011-.219.023-.336.035-.281.035-.559.058-.836.093l-.305.036c-1.449.16-2.832.507-4.238.867-.023 0-.035.011-.047.011h-.012c-.023.012-.047.012-.058.024-.047.012-.082.023-.125.035-.14.035-.293.082-.34.094-.578.172-1.125.383-1.66.613-.184.082-.36.152-.535.23-.243.106-.477.212-.72.313-.37.164-.741.324-1.112.5-3.313 1.508-6.555 3.14-9.805 4.762-.164.082-.336.16-.512.254-.012.011-.023.011-.035.011-.012.012-.012.012-.023.012-.047.024-.082.047-.13.059-.011 0-.011.011-.023.011-.183.094-.36.184-.543.266-.117.059-.246.117-.36.176-.116.055-.233.113-.35.16-.532.254-1.055.512-1.59.766l-.348.172c-.012 0-.024.011-.035.011a15 15 0 0 1-.989.453c-.011 0-.011 0-.011.012-2.426 1.102-4.856 2.133-7.364 2.977-.023.011-.035.011-.058.023h-.012c-1.36.453-2.695.8-4.066 1.149-.012 0-.012 0-.024.011 0-.023.012-.035.012-.058.21-.914.375-1.809.477-2.664.21-1.715.199-3.305-.024-4.637-.012-.09-.035-.172-.047-.266a8.5 8.5 0 0 0-.347-1.285c-.024-.059-.047-.129-.07-.187-.036-.09-.067-.184-.114-.278l-.07-.137a5 5 0 0 0-.313-.546c-.047-.059-.082-.125-.129-.184-.105-.152-.234-.277-.347-.406-.024-.024-.047-.047-.082-.07a2.7 2.7 0 0 0-1.86-.72c-1.672 0-3.914 1.333-6.703 4.567-.023.024-.035.047-.059.07l-.011.012-.024.024a.1.1 0 0 1-.03.046 76 76 0 0 1-2.614 2.79c-.188.187-.375.37-.57.558-.188.184-.383.36-.583.543-.195.188-.453.406-.648.578-.2.176-.316.281-.523.442-.2.164-.465.394-.676.558-.207.16-.383.301-.59.461-.2.153-.383.29-.582.43a2 2 0 0 1-.176.117c-.16.113-.348.242-.508.36a8 8 0 0 0-.441.288c-.152.09-.363.23-.5.313-.14.09-.317.184-.406.242-.106.059-.13.082-.2.117a13 13 0 0 1-.5.278c-.011.011-.023.011-.035.011a27 27 0 0 1-1.195.579c-.188.082-.383.164-.547.23a4 4 0 0 1-.465.176c-.113.047-.183.07-.23.094l-.024.011c-.164.055-.3.102-.465.16-.164.059-.476.141-.628.2-4.762 1.691-9.036 3.625-12.625 7.195-.13.125-.172.184-.266.289-.094.102-.152.16-.234.266-.012.011-.012.023-.024.035-.09.09-.172.195-.254.3 0 .012-.011.012-.023.024-.153.195-.301.395-.465.602-.23.312-.453.636-.672.96-.012.024-.023.047-.047.06-.117.187-.234.358-.347.542 0 .012-.012.012-.012.012-.14.21-.27.418-.399.629-.125.218-.254.402-.382.636-.125.22-.266.461-.407.707-.047.067-.082.137-.125.22-.047.081-.164.265-.199.347 0 .012 0 .012-.012.023-.254.43-.488.844-.742 1.274-.011.011-.011.023-.011.023-.06.117-.165.266-.223.371-.059.094-.106.164-.137.23-.047.071-.058.094-.094.153a27.2 27.2 0 0 1-3.867 4.785c-.012.012-.012.024-.023.024-1.14 1.043-2.324 1.945-3.602 2.84q-.278.189-.629.414c-1.37.882-2.843 1.68-4.297 2.433-.347.176-.546.406-.605.73v.024a.9.9 0 0 0 .105.52c.047.082.082.152.082.152l.036.07c.035.059.058.102.093.16.024.047.059.094.082.13l.043.07c.2.336.418.672.641.925.035.047.07.082.105.118a11.6 11.6 0 0 0 3.137 2.363c2.32.973 4.668 1.445 7.04 1.574l8.07-.613c8.156-1.414 16.437-4.531 24.543-2.758.023 0 .058.012.082.023.011 0 .023 0 .035.012h.011c.012 0 .024 0 .036.012.011 0 .023 0 .035.012h.011c.872.277 1.649.671 2.403 1.136.758.461 1.476.973 2.219 1.457.5.325 1 .637 1.523.918v.012s0 .008-.012.02l-.035.07a21.386 21.386 0 0 1-1.684 3.094c-.406.625-.824 1.23-1.277 1.82-.687.984-1.418 1.934-2.07 2.629-.172.2-.348.37-.512.512l.176-.106q.229-.142.476-.3c.07-.048.141-.094.223-.153l.008-.012c.246-.172.488-.336.687-.484.012-.012.036-.024.047-.047.094-.082.196-.164.301-.254.07-.059.129-.117.188-.164.023-.012.035-.035.046-.047.024-.023.055-.058.079-.07l.035-.031c.047-.047.094-.082.152-.141.012 0 .012-.012.012-.012l.012-.011.023-.024c.129-.117.242-.219.36-.348a26 26 0 0 0 2.019-2.304c.094-.117.176-.23.27-.348l.277-.383c.011 0 0 0 .011-.011l.012-.012v-.012l.012-.012c.012-.011.023-.035.047-.058.023-.047.058-.09.082-.125.012-.012.012-.012.012-.024l.011-.011v-.024c.012-.012.024-.023.024-.035.66-.742 1.672-2.434 1.867-3.07.012-.047.023-.082.035-.117 0-.024 0-.047-.012-.047-13.332-16.914-32.941 5.367-48.203-5.016 3.102.2 6.121.024 9.176-.566.293-.059.559-.118.836-.188 5.543-1.527 10.457-3.926 15.437-6.742.036-.012.059-.035.094-.047 4.668-2.758 9.293-5.492 14.266-7.644.183-.082.383-.153.566-.223.188-.078.371-.137.559-.219.023-.012.047-.012.082-.023 1.96-.672 3.902-1.196 5.887-1.54l.582-.105.253-.035c.036-.012.07-.012.106-.012.105-.011.21-.035.316-.047.102-.011.207-.035.313-.046a40 40 0 0 1 2.578-.254c-7.328 2.664-12.73 8.644-20.223 10.925-.011 0-.023.012-.035.012s-.023.012-.023.012c-.024.012-.047.012-.07.023-.024.012-.06.012-.083.024-.066.011-.125.035-.195.047a.4.4 0 0 1-.117.023c-.047.008-.094.02-.149.02l-.14.035c-.035.011-.082.011-.153.023h.036s.035 0 .082.012h.07c.023 0 .059.012.105.012.16.011.336.035.543.058.094.012.188.024.293.035 1.414.141 3.496.36 4.82.489.09.007.184.02.266.02.012 0 .024 0 .035.01.082.013.165.013.23.024a.6.6 0 0 0 .142.012c.093.012.187.024.257.024.02 0 .043 0 .055.011.082.012.152.012.2.012h.288c.035 0 .059.012.094.012.047 0 .082.011.129.011.059.012.117.012.16.012.07.012.14.012.211.012.059 0 .106.012.152.012 1.461.058 2.727-.024 4.133-.13h.024c2.625-.253 5.203-.671 7.746-1.378 1.777-.485 3.441-1.121 5.125-1.852.012-.012.023-.012.035-.023.277-.13.555-.254.836-.395.023-.012.058-.023.082-.047.23-.125.453-.254.684-.382.21-.114.417-.243.628-.372.196-.113.395-.23.579-.359 2.906-1.793 5.554-3.855 8.203-6.047l.011-.012c.078-.07.16-.136.254-.207.164-.14.336-.265.524-.394.093-.059.172-.129.265-.184.106-.07.2-.14.305-.21.195-.137.406-.278.613-.407.524-.312 1.059-.601 1.625-.809.235-.082.442-.164.688-.222a9.7 9.7 0 0 1 2.578-.313c.07 0 .164.012.223.012.03 0 .066.012.101.012h.012c.023 0 .047 0 .058.012h.024c.012.011-.024.035-.047.058q-.069.07-.148.14c-.153.137-.317.29-.465.438l-.024.024c-.011.011-.011.011-.023.011-.106.094-.2.2-.305.301l-.312.313-.024.023c-.406.418-.824.848-1.207 1.29-.082.089-.176.194-.258.3-.359.426-.707.855-1.043 1.309-.082.105-.164.207-.234.312-.09.129-.195.266-.289.406l-.176.242c-.148.22-.289.43-.441.637-.012.012-.024.024-.024.047-.3.453-.578.902-.87 1.379-.012.012-.012.023-.02.023-.012.012-.012.024-.024.024-.011.012-.011.012-.011.023-.024.047-.059.094-.082.149-.012.023-.036.058-.059.093a.1.1 0 0 0-.023.047c-.012.024-.036.059-.047.082-.036.059-.059.09-.07.125-.012.012-.012.024-.024.036s-.012.023-.024.035c-.023.035-.035.07-.058.105v.012c-.055.094-.113.195-.172.289-.023.047-.047.094-.082.14-.094.172-.176.313-.254.462-.047.082-.07.14-.105.199-.07.136-.153.289-.223.437-.047.082-.078.164-.125.246-.059.125-.129.254-.2.39a.4.4 0 0 1-.046.095c-.16.324-.324.672-.477 1.007q-.223.504-.453 1.008c-.023.047-.047.094-.058.153-.008.011-.008.023-.02.047-.047.101-.094.207-.14.3-.012.024-.012.047-.024.059-.059.113-.106.23-.152.348 0 .011-.012.011-.012.023-.012.031-.024.078-.035.113-.012.024-.024.047-.024.07v.012l33.106-16.082 1.648-.8.36-.172.082-.036c.011 0 .011-.011.023-.011l6.438-3.13.16-.077c.14-.07.27-.13.406-.2l.14-.07c.047-.023.094-.047.141-.058.035-.012.067-.032.09-.043.164-.082.305-.188.375-.371 0-.012 0-.012.008-.024 0-.012.012-.023.012-.047.035-.129.035-.265.07-.406a.93.93 0 0 1 .394-.531c.106-.059.211-.094.293-.164.012-.012.024-.024.047-.036.059-.058.09-.136.137-.218a4.5 4.5 0 0 0 .281-.696c.035-.14.059-.277.047-.418m0 0"/></clipPath><clipPath id="k"><path d="M73 156h50v40H73Zm0 0"/></clipPath><clipPath id="l"><path d="M121.41 160.469c-.293 2.328-2.508 5.875-4.695 8.12-.055.06-.102.118-.16.161-.489.488-.977.918-1.43 1.242-.023.024-.047.035-.082.059-.047.035-.102.066-.148.101-.047.036-.106.059-.153.094a1 1 0 0 1-.14.082c-.047.024-.09.059-.137.082-.317.16-.594.266-.86.29 2.59-1.981 3.993-4.66 3.704-8.02-2.426 4-5.715 6.5-10.582 6.293 6.226-1.59 7.144-10.313 12.253-10.832.094-.012.176-.012.27-.024 1.383-.07 2.02.508 2.16 1.446q.07.42 0 .906m1.207 3.242c-.058-1.54.117-3.117-.523-4.586-2.38-5.402-5.864-1.937-7.98 1.586-2.333 3.406-5.727 5.84-9.177 7.797s-5.144 4.324-6.675 7.785c-1.211 2.863-2.918 5.527-5.008 7.914-4.926 5.621-11.965 10.035-19.27 11.32 9.258-.453 19.887-3.535 24.649-11.48a12.8 12.8 0 0 1-4.59 2.93c3.707-3.5 8.086-5.91 11.277-9.942-1.336 1.195-3.043 2.063-4.82 2.328 1.059-.636 2-1.285 2.86-2.015a15.5 15.5 0 0 0 3.183-3.73c-.676.695-1.441 1.089-2.383 1.195.766-.118 1.625-1.497 2.067-1.868 2.683-2.246 5.285-3.707 8.445-4.945-1.637 1.887-3.555 3.43-5.563 4.887 1.778-.125 3.461-.485 5.075-1.25-.684.925-1.508 1.633-2.438 2.293 3.578-1.043 6.238-2.711 7.969-6.07a6.7 6.7 0 0 1-.848 2.734c2.485-3.106 3.426-6.406 3.145-10.36.386 1.149.547 2.286.605 3.477m0 0"/></clipPath><clipPath id="n"><path d="M113 210h1v1h-1Zm0 0"/></clipPath><clipPath id="o"><path d="M113.824 210.113q.018 0 0 0 0 .018 0 0m0 0"/></clipPath><clipPath id="q"><path d="M69.227 196H121v14H69.227Zm0 0"/></clipPath><clipPath id="r"><path d="M120.746 202.234c-.172.825-.66 1.426-1.078 2.133-.012.012-.023.035-.035.059-.012.012-.024.035-.035.047v.011l-.012.012s-.012.012-.012.024a.6.6 0 0 0-.082.125c-.012.023-.035.046-.047.058 0 .012-.011.012-.011.012l-.024.023c-.012.012 0 .012-.012.012-.09.129-.183.266-.277.383-.094.113-.176.23-.266.347a24 24 0 0 1-2.023 2.305c-.117.117-.23.23-.36.348l-.023.023-.023.024c-.059.058-.106.093-.153.129l-.03.03c-.024.024-.048.048-.083.071-.012.012-.035.024-.047.047-.058.047-.117.106-.187.164-.094.078-.196.172-.301.254a.1.1 0 0 0-.047.047c-.195.148-.406.324-.617.473 0 0-.008 0-.008.011-.07.059-.14.106-.223.164q-.247.16-.476.301c-.059.035-.117.059-.176.094.164-.153.34-.324.512-.512.64-.683 1.37-1.633 2.07-2.617.453-.59.871-1.195 1.278-1.82.453-.696.882-1.426 1.253-2.176.153-.305.301-.606.43-.918l.035-.07c.012-.012.012-.024.012-.024v-.008a22 22 0 0 1-1.523-.918c-.743-.484-1.461-.996-2.22-1.46-.753-.462-1.53-.856-2.402-1.133h-.011c-.012-.012-.024-.012-.035-.012-.012-.012-.024-.012-.036-.012h-.011c-.012-.012-.024-.012-.035-.012a.2.2 0 0 0-.082-.023c-8.106-1.773-16.387 1.344-24.543 2.758-2.985.476-5.774.754-8.07.613-2.372-.129-4.72-.601-7.04-1.574a11.6 11.6 0 0 1-3.242-2.48 6.4 6.4 0 0 1-.64-.926s-.024-.036-.044-.082c-.023-.036-.046-.082-.082-.13-.023-.046-.058-.1-.093-.16a.6.6 0 0 0 .14.16c.219.2.543.372.836.512.707.336 1.438.672 2.172.996.23.106.465.196.695.278.336.117.676.207 1.024.242-.235.012-.465.023-.688.012a8 8 0 0 1-1.008-.09c.696.39 1.383.707 2.102.926.941.289 1.906.43 2.961.43-.582.066-1.16.136-1.742.16 1.14.265 2.254.476 3.367.601 3.488.418 6.879.14 10.363-.879 1.485-.43 2.832-.914 4.215-1.379.723-.242 1.453-.488 2.219-.718a3.5 3.5 0 0 1-1.172.937c.512-.184 1.023-.36 1.531-.52 4.242-1.343 8.457-1.957 12.977-1.91-.766.22-1.547.426-2.313.649 2.496-.293 4.867-.617 7.317.09 1.082.312 2.047.882 3.066 1.343-.3-.043-.601-.09-.914-.125l-.758-.07c1.219.453 2.348 1.02 3.403 1.785.234.172.453.348.652.555a4 4 0 0 1 .523.695c.082.14.13.29.16.442.094.265.118.566.06.843m0 0"/></clipPath><clipPath id="t"><path d="M81 199h59v31.828H81Zm0 0"/></clipPath><clipPath id="u"><path d="M139.75 199.582s-.012 0 0 0c-6.062 4.414-8.434 12.606-15.09 15.977-.906.464-1.89.836-2.972 1.09-.036.011-.07.011-.118.023-.043.012-.054 0-.125.012a4 4 0 0 1-.382.035c-.083 0-.094 0-.165.011-.058 0-.152.012-.222.012h-.012c-2.195 2.04-4.379 3.324-7.21 4.332-.024.035-.06.059-.083.094-2.183 2.246-4.633 3.879-7.621 4.691-.012 0-.02.012-.031.012h.02c.011 0 .023 0 .034-.012-.011 0-.023.012-.035.012-.008 0-.031.012-.043.012.012 0 .012 0 .024-.012l-.328.07c-1.067.22-4.18 1.516-5.563 2.235-.012 0-.023.012-.023.012q-.557.3-1.114.582c-1.941.96-3.937 1.703-6.007 1.968h-.012c-.047 0-.082.012-.125.012-1.324.16-2.207.047-3.418-.14a8.3 8.3 0 0 1-1.438-.36 16.4 16.4 0 0 1-2.347-.984s-.012 0-.024-.012c-.57-.29-1.113-.602-1.672-.938-.347-.21-.734-.476-1.07-.73l-.113-.082c-.035-.024-.106-.024-.094-.07.035-.125.024-.184.125-.348 1.117-1.91 3.266-2.399 5.344-2.723-2.426-.3-4.285.106-6.11 1.75-.011.012-.023.035-.023.024.082-.473.27-.89.547-1.285.035-.047.082-.106.117-.141.035-.031.047-.055.082-.09a6 6 0 0 1 1.043-.871s.012 0 .012-.012q.892-.54 1.87-.902c.036-.012.083-.024.118-.035.418-.153.918-.313 1.336-.418.418-.113.8-.207 1.195-.29.395-.081.801-.171 1.184-.206 1.965-.211 3.89-.235 5.855-.278.371-.14.766-.28 1.137-.406.188-.07.395-.14.559-.21.164-.055.36-.126.488-.173.129-.047.16-.07.242-.093.305-.118.524-.196.836-.325.317-.129.7-.277 1.024-.43.152-.058.3-.124.453-.183.312-.14.629-.277.93-.418.163-.07.312-.148.476-.219.07-.035.129-.058.195-.093.07-.036.117-.059.2-.094.07-.035.07-.035.175-.078.102-.047.278-.14.418-.2a47 47 0 0 0 2.403-1.285l.546-.312a59 59 0 0 0 2.461-1.578c.153-.102.282-.184.442-.301.164-.113.383-.277.558-.406.082-.067.2-.137.278-.196.164-.129.383-.324.523-.406 0 0 .012 0 .012-.012.012 0 .012-.011.012-.011h.011l.012-.012c.176-.102.5-.371.777-.543.465-.3.895-.523 1.465-.812 3.219-1.633 6.004-3.766 8.469-6.442.012-.012.023-.035.035-.047-.547 1.95-1.164 3.836-2.047 5.668 7.18.059 13.324-8.863 20.606-11.992.117-.059.246-.105.37-.152 0-.012.4-.172.5-.22.013 0 .013 0 .013-.01.011 0 .011 0 .023-.013.035 0 .059-.011.082-.023m0 0"/></clipPath><clipPath id="w"><path d="M82 199h58v31.828H82Zm0 0"/></clipPath><clipPath id="x"><path d="M118 165h10v8h-10Zm0 0"/></clipPath><clipPath id="y"><path d="M122.105 170.594a8.5 8.5 0 0 0 3.243-1.344c-2.16 2.004-4.496 2.77-7.32 3.441 1.988-1.843 3.706-3.613 4.843-6.093.024-.036.024-.036.047-.082 0 .023-.012.035-.012.058.012-.012.012-.012.024-.012 1.37-.347 2.718-.695 4.066-1.148h.012c-.477 1.102-1.207 1.957-2.102 2.781.942-.496 1.79-1.09 2.567-1.82-1.22 2.156-3.196 3.164-5.368 4.219m0 0"/></clipPath><clipPath id="A"><path d="M157 143.832h148.477V220H157Zm0 0"/></clipPath><clipPath id="B"><path d="M288.254 182.852c-.012 0 0-.012 0 0-.024-.024-.035-.106-.059-.059-9.828-7.574-20.222-14.504-31.199-20.297-7.598-4.355-29.27-15.71-51.176-18.676-4.078.38-8.191 1.285-12.152 2.5a26 26 0 0 0-4.773 2.016c-4.168 2.273-8.176 4.601-13.067 5.168-.676.035-1.742.219-2.508.312-1.035-.808-2.617-.636-2.648.895v.012c-.746.472-1.395.914-2.152 1.41-.008 0-.008.012-.02.012-2.812 1.843-5.738 3.8-8.363 5.886-.282.23-.364.301-.63.512-1.195-.824-2.624.36-1.882 1.633.535.719 1.906 1.168 2.602.3 6.343.801 13.554 2.364 19.757 2.712.059.312.211.601.43.824-.324.66-.672 1.32-.906 1.804-.031.036-.031.07-.055.118a132 132 0 0 0-2.836 6.222c-1.476-.847-2.812-1.902-4.156-2.933-.012 0-.012-.012-.024-.012l-.011-.012c-.594.223-1.188.465-1.778.707 0 0 .036.024.036.035a82 82 0 0 0 5.328 3.754c-.254.649-.508 1.008-.754 1.68-.5-.066-1.36.848-1.024 1.46.735 1.345 2.637.243 2.836-.265 2.754-.836 5.504-1.632 8.258-2.457-3.484 3.649-6.816 7.38-9.812 11.446-2.29.605-1.57 3.175.66 2.191 2.902 1.148 8.758 3.648 8.758 3.648l11.964 4.036s.72 1.445 1.418 1.007c6.864 8.723 16.746 13.868 26.446 18.836.047.036.199.059.27.036 4.55-.114 8.593-.372 13.136-.485-.035-.047.477-.129.441-.164 5.457-1.726 10.907-3.488 16.368-5.234-9.028-2.91-17.961-5.91-26.797-9.364-.293-.777-.77-1.195-1.606-1.195-1.879-5.11-5.808-15.281-5.808-15.281l.375-.43s13.625 4.16 20.523 5.969c4.867 2.758 9.746 5.516 14.625 8.273.055-.093.125-.187.184-.265-.024.101-.036.207-.07.312 4.913.95 9.64 1.98 14.695 2.824 6.703-2.421 15.933-5.12 21.894-7.773 5.957-2.652 7.34-5.004 12.453-7.656-5.879-1.89-11.465-3.93-17.191-5.992m4.273 12.003c-4.437-1.69-8.863-3.417-13.312-5.074 0-.176.012-.36-.059-.511 2.977-1.887 5.903-3.844 8.84-5.782Zm-26.484-26.058c7.61 4.219 14.555 9.305 21.594 14.367-2.89 1.902-5.762 3.836-8.688 5.68-.406-.395-.812-.547-1.37-.57-3.903-6.489-7.876-12.93-11.595-19.524.012.023.036.035.059.047M253.5 187.336c-.059-.266-.187-.383-.312-.59a531 531 0 0 0 7.05-6.258c.254.106.52.164.801.164a441 441 0 0 0 1.902 12.907c-.3.046-.566.171-.824.359a1340 1340 0 0 1-8.71-5.734c.116-.27.152-.594.093-.848m-3.23.476c-.012.032 0 .043.011.055-2.672 1.324-5.379 2.586-8.058 3.871-1.942-2.515-3.672-5.18-5.473-7.797.43-.488.535-1.195.105-1.714 3.473-2.829 6.934-5.676 10.313-8.622.293.083.582.141.871.06.883 4.241 2.012 8.398 3.23 12.558-.695.359-1.023.789-1 1.59m-38.91 7.262a.8.8 0 0 0-.06-.207l6.934-7.496.465.29s-.117 7.726-.324 11.538a1.4 1.4 0 0 0-.512.2c-2.195-1.313-6.492-3.942-6.492-3.942s.012-.289-.012-.383m4.855-36.031c.023-.012.035-.035.058-.047 3.75 3.488 7.375 7.102 11.36 10.324-.117.149-.211.301-.293.461-3.414.707-6.817 1.461-10.207 2.215a1.27 1.27 0 0 0-.547-.406c.059-4.195-.094-8.363-.371-12.547m1.754 25.605-.418.52s-6.762-.867-10.13-1.457c-.034-.094-.07-.2-.116-.293 2.465-3.219 7.851-9.2 7.851-9.2l.711.095Zm-11.27-1.738s-.336-.082-.484-.035c-1.754-2.234-3.602-4.355-5.496-6.477.117-.253.199-.507.234-.8 4.574-.672 9.117-1.586 13.692-2.258.011.082.035.23.035.23Zm8.992-11.238a2.2 2.2 0 0 0-.8.73c-4.727.696-9.375 1.657-14.078 2.446l-.106-.2c4.625-5.18 9.258-10.324 14.113-15.293.164.047.325.06.489.06.277 4.089.441 8.167.382 12.257m-15.82 2.433c-.035-.011-.082-.011-.117-.023.176-4.344.394-8.68.512-13.023.058-.082.105-.164.152-.23a70.5 70.5 0 0 1 13.648-2.388.13.13 0 0 1 .012.059c-4.926 5.027-9.539 10.332-14.207 15.605m.324 2.895c1.848 2.074 3.672 4.137 5.38 6.328-.13.219-.196.45-.22.707a656 656 0 0 1-5.984 3.926c-.047-3.566-.012-7.102.27-10.66.195-.078.382-.172.554-.301m5.38 7.902c.277.36.605.625 1.07.59.847 2.84 1.777 5.645 2.773 8.426-.102.09-.184.184-.266.3-3.207-1.738-6.332-3.593-9.476-5.433a320 320 0 0 0 5.898-3.883m1.706.176c.094-.152.153-.305.188-.465 3.308.578 9.965 1.438 9.965 1.438s.093.347.164.52c-2.348 2.421-4.567 4.937-6.797 7.472a1.6 1.6 0 0 0-.613-.313c-1.118-2.835-2.036-5.734-2.907-8.652m9.434-11.226c.254-.305.453-.594.566-.977 3.348-.727 6.668-1.469 10.028-2.164.09.195.218.348.394.496-2.918 4.254-8.55 13.082-8.55 13.082l-.255.024s-1.789-6.93-2.183-10.461m.86-15.016c5.41.703 10.812 1.457 16.25 2.004.058.23.148.414.288.601-1.543 2.48-3.218 4.88-4.902 7.254a1.5 1.5 0 0 0-.695.035c-3.813-3.117-7.34-6.523-10.942-9.894m17.35 3.023a1.5 1.5 0 0 0 .848-.129c3.426 3.43 6.993 6.72 10.735 9.79-.012.011-.012.023-.024.035a694 694 0 0 1-16.285-2.004 1.4 1.4 0 0 0-.199-.406c1.7-2.387 3.371-4.81 4.926-7.286m-4.855 8.63s10.746 1.378 16.137 1.984c0 .195.09.367.172.543-3.414 2.964-6.875 5.863-10.453 8.632-.176-.046-.535-.07-.535-.07l-5.434-10.867Zm18.61 2.921c.152-.117.265-.242.382-.394 3.45 1.957 6.97 3.789 10.489 5.609-.242.473-.219 1.04.14 1.457a531 531 0 0 1-7.062 6.246 2.4 2.4 0 0 0-.652-.164c-1.23-4.226-2.415-8.445-3.297-12.754m13.043 7.09c.164-.094.3-.195.441-.324 4.703 2.976 9.469 5.875 14.207 8.793-.187.347-.234.672-.187 1.066-3.774 1.52-7.664 2.93-11.5 4.356-.266-.395-.59-.625-1.032-.786-.699-4.359-1.336-8.726-1.93-13.105m3.125 14.527a668 668 0 0 0 11.672-4.425c.164.175.351.304.57.394-2.113 3.93-4.203 7.856-6.305 11.785a622 622 0 0 0-6.238-6.953c.16-.254.265-.496.3-.8m12.207-6.625c-.07.036-.125.07-.196.106-4.796-2.946-9.617-5.875-14.37-8.887.175-.582-.102-1.125-.567-1.484 1.254-2.93 2.59-5.828 3.82-8.77 3.66 6.43 7.516 12.707 11.313 19.035m-20.024-24.68c2.88 1.555 5.75 3.106 8.547 4.786-1.336 3.152-2.738 6.27-4.11 9.41-.116-.023-.222-.047-.335-.059-1.488-4.691-2.93-9.41-4.172-14.183.012.023.047.035.07.047m3.38 14.22a2.4 2.4 0 0 0-.548.3c-3.562-1.844-7.105-3.699-10.601-5.68.078-.312.02-.648-.13-.925 2.532-2.27 4.981-4.59 7.4-6.989 1.16 4.473 2.554 8.864 3.878 13.293m-3.786-14.438c.059.035.07.035.125.07-2.625 2.594-5.281 5.145-8.035 7.61a2.4 2.4 0 0 0-.477-.196c-1.547-4.82-3.113-9.453-4.414-14.355 4.192 2.422 8.594 4.449 12.801 6.87m-9.57 7.195c-3.672-3.023-7.18-6.293-10.57-9.629.148-.312.183-.66.09-.996 2.152-1.09 4.3-2.18 6.46-3.277 1.219 4.644 2.531 9.336 4.02 13.902m-13.907-18.457s6.54 2.86 9.086 3.926c-2.183 1.09-4.03 2.074-6.214 3.176-.352-.184-.723-.254-1.106-.13-3.52-3.183-6.828-6.53-10.21-9.859 2.73 1.114 8.444 2.887 8.444 2.887m-9.687-2.887c3.543 3.489 7.016 7.024 10.64 10.418a.8.8 0 0 0-.117.16c-5.738-.59-11.441-1.413-17.168-2.14a1.6 1.6 0 0 0-.136-.559c2.3-2.593 4.68-5.12 6.78-7.879m-.59-.73c-2.125 2.805-4.508 5.402-6.844 8.031-.093-.035-.3-.07-.3-.07l-9.016-11.863s10.805 1.832 16.16 3.902m-16.762-2.547s5.97 7.008 8.375 11.008c-.011.023-.035.035-.047.055-4.738.359-9.21 1.113-13.789 2.386 1.977-4.414 5.461-13.449 5.461-13.449m-.824-1.285a568 568 0 0 1-5.555 14.238c-.023 0-.09.012-.09.012l-7.503-10.938s8.582-2.746 13.148-3.312m-6.992 16.89-10.887 14.126s-3.68-5.817-4.832-7.797c.258-.258 15.719-6.328 15.719-6.328m-9.758 15.505c3.02-.29 6.04-.72 9.059-.997.058.207.14.391.258.567-2 3.105-3.985 6.222-5.797 9.453-1.22-2.93-2.532-5.816-3.778-8.734.106-.094.188-.188.258-.29m9.164-1.993c-3.066.29-6.11.809-9.164 1.145-.023-.035-.047-.059-.082-.094 3.844-4.426 7.305-9.094 10.629-13.926-.082 3.965-.27 7.926-.371 11.887-.453.246-.77.535-1.012.988m-6.32-25.57 7.062 10.09-.523.765-14.934 5.852Zm-15.809 5.305c5.285-.766 10.422-2.942 14.66-5.957-1.835 4.613-8.164 16.558-8.164 16.558s-.363-.152-.734-.117c-2.437-2.836-4.367-6.164-6.539-9.187 0 .011.012.011.012.023-.325-.43-.524-.73-.895-1.238.594-.035 1.13-.047 1.66-.082m-13.02 8.757c-.605-.125-1.218-.195-1.823-.277.675-.496 1.289-1.02 1.976-1.504.613-.476 1.324-.918 1.984-1.379.036-.035.083-.058.13-.093h.011c.012-.012.035-.024.047-.036 1.879-1.308 3.984-2.652 5.898-3.941.141-.102.317-.195.454-.3.105-.055.222-.15.328-.196l.043-.024c.41.196 1.199.532 1.547.13.37.566.195.265.523.75 0 .011.012.011.012.023 1.394 2.027 4.925 7.058 6.398 8.933.094.13.106.13.211.243-.07.093-.129.199-.187.304-5.887-.547-11.684-1.75-17.551-2.632m14.473 15.887c1.059-3.594 3.23-8.043 4.426-11.125 1.184 2.297 3.344 5.41 4.903 7.82-.094.293-.29.442-.301.743-3 .87-6.02 1.855-9.028 2.562m9.922-1.762c.078.012.16.012.23.024 1.372 2.93 2.778 5.84 3.997 8.828-.07.07-.14.277-.14.277l-14.25 2.793s6.609-8.074 10.163-11.922m-9.875 12.86 13.614-2.758-5.586 5.934Zm9.317 3.57a81 81 0 0 1 5.379-5.758c.148.09.507.184.507.184l4.637 9.41s-6.808-2.863-10.523-3.836m11.195 3.047-4.492-8.992.066-.125c1.754.324 3.496.672 5.239 1.039-.243 2.691-.813 8.078-.813 8.078m-4.484-10.172c-.055-.082-.114-.187-.172-.258 1.8-3.172 3.672-6.277 5.644-9.347-.242 3.52-.199 7.066-.14 10.601-1.778-.36-3.555-.648-5.332-.996m5.343 10.797c.352-2.816.63-5.64.883-8.469 3.219 1.899 6.414 3.813 9.688 5.594.011.035 0 .094.023.129-3.437 1.09-6.875 2.168-10.336 3.176a1.8 1.8 0 0 0-.258-.43m9.7 10.73c-3.356-2.746-6.575-5.656-9.383-8.957.023-.117.043-.222.054-.324 3.567-1.066 10.653-3.328 10.653-3.328l.383.317s-1.032 8.203-1.707 12.293m2.507-12.18.399-.23s4.18 2.618 6.316 3.891c-.047.27-.058.559.035.813a734 734 0 0 0-8.351 7.3c.594-3.918 1.601-11.773 1.601-11.773m-1.449 12.919a773 773 0 0 1 8.77-7.656c.312.195.582.37.941.3 1.836 5.352 3.774 10.672 5.61 16.024-5.215-2.711-10.372-5.48-15.32-8.668m18.852-4.367c7.863 3.047 15.773 5.793 23.8 8.379-4.624 1.48-9.246 3-13.882 4.437a599 599 0 0 1-10.059-12.594c.047-.07.094-.152.14-.222m-1.153.742c.176.012.34-.059.512-.13a514 514 0 0 0 10.004 12.528c-4.09.114-8.168.242-12.258.336.57-4.254 1.153-8.492 1.742-12.734m-2.148 11.054c-1.742-5.019-3.426-10.07-5.227-15.062.13-.117.235-.258.317-.406 1.855.879 3.785 1.633 5.656 2.492-.223.726.137 1.445.8 1.816a852 852 0 0 0-1.546 11.16m1.266-13.718c-.067.058-.137.113-.207.183-1.942-.879-3.938-1.62-5.856-2.535-.023-.547-.3-.984-.719-1.32.22-3.824.442-11.52.442-11.52l.57-.066s3.914 10.148 5.77 15.258m-5.04-18.168c-.222-.184-.706-.453-.706-.453s5.492-8.828 8.375-13.032c.171 0 .472-.105.472-.105l5.196 10.543s-.512.488-.618.867c-4.238.777-8.492 1.438-12.718 2.18m.477 1.656c.07-.266.082-.531.024-.809 4.144-.695 8.293-1.324 12.43-2.074.566.613 1.39.89 2.202.625 1.907 2.746 3.743 5.516 5.786 8.168-6.864-1.797-13.649-3.824-20.442-5.91m20.629 5.98c2.844-1.367 5.691-2.722 8.523-4.125.465.383.918.532 1.512.543 1.29 3.872 2.684 7.72 4.055 11.563a3340 3340 0 0 1-14.09-7.98m10.73-3.777c.106-.058.2-.129.293-.21 2.891 1.913 5.786 3.823 8.688 5.714-.254.52-.211 1.133.21 1.563-1.8 1.308-3.554 2.652-5.343 3.984-1.3-3.684-2.613-7.356-3.848-11.05m3.825 12.016c-.035-.012-.059-.035-.094-.047 2.02-1.496 4.02-3.035 6.05-4.508.5.16 1.083.184 1.56-.094 2.242 2.47 4.48 4.95 6.687 7.461-4.738-.925-9.477-1.851-14.203-2.812m36.656-5.133c-6.016 2.71-15.367 5.469-22.207 7.91 1.883-4.156 4.344-8.316 6.492-12.465.652.035 1.172-.324 1.512-.86 4.75 1.763 9.476 3.606 14.203 5.415.012-.012.035-.012.047-.023-1.59-4-3.184-8.008-4.785-12.004 5.191 1.773 10.187 3.66 15.507 5.34-4.648 2.374-5.566 4.277-10.722 6.664.012.011.012.035.023.042-.023-.007-.047-.019-.07-.019m0 0"/></clipPath><clipPath id="D"><path d="M174 156h1v1h-1Zm0 0"/></clipPath><clipPath id="E"><path d="M174.71 156.113c.013.02.024.032.048.055l.023.023c-.023-.023-.047-.058-.07-.078m0 0"/></clipPath><linearGradient id="d" x1="526.873" x2="515.327" y1="-7363.602" y2="-7293.501" gradientTransform="matrix(.11615 0 0 -.11586 69.233 -636.61)" gradientUnits="userSpaceOnUse"><stop offset="0" stop-color="#B42901"/><stop offset=".008" stop-color="#B42A01"/><stop offset=".016" stop-color="#B52B01"/><stop offset=".023" stop-color="#B52B02"/><stop offset=".031" stop-color="#B62C02"/><stop offset=".039" stop-color="#B72D02"/><stop offset=".047" stop-color="#B72E02"/><stop offset=".055" stop-color="#B82E02"/><stop offset=".063" stop-color="#B82F02"/><stop offset=".07" stop-color="#B93002"/><stop offset=".078" stop-color="#B93102"/><stop offset=".086" stop-color="#BA3102"/><stop offset=".094" stop-color="#BB3203"/><stop offset=".102" stop-color="#BB3303"/><stop offset=".109" stop-color="#BC3403"/><stop offset=".117" stop-color="#BC3403"/><stop offset=".125" stop-color="#BD3503"/><stop offset=".133" stop-color="#BD3603"/><stop offset=".141" stop-color="#BE3703"/><stop offset=".148" stop-color="#BE3703"/><stop offset=".156" stop-color="#BF3803"/><stop offset=".164" stop-color="#C03904"/><stop offset=".172" stop-color="#C03A04"/><stop offset=".18" stop-color="#C13A04"/><stop offset=".188" stop-color="#C13B04"/><stop offset=".195" stop-color="#C23C04"/><stop offset=".203" stop-color="#C23D04"/><stop offset=".211" stop-color="#C33D04"/><stop offset=".219" stop-color="#C33E04"/><stop offset=".227" stop-color="#C43F04"/><stop offset=".229" stop-color="#C54005"/><stop offset=".234" stop-color="#C54005"/><stop offset=".242" stop-color="#C54005"/><stop offset=".25" stop-color="#C64105"/><stop offset=".258" stop-color="#C64205"/><stop offset=".266" stop-color="#C74305"/><stop offset=".273" stop-color="#C74305"/><stop offset=".281" stop-color="#C84405"/><stop offset=".289" stop-color="#C94505"/><stop offset=".297" stop-color="#C94605"/><stop offset=".305" stop-color="#CA4606"/><stop offset=".313" stop-color="#CA4706"/><stop offset=".32" stop-color="#CB4806"/><stop offset=".328" stop-color="#CB4906"/><stop offset=".336" stop-color="#CC4906"/><stop offset=".344" stop-color="#CC4A06"/><stop offset=".352" stop-color="#CD4B06"/><stop offset=".359" stop-color="#CE4C06"/><stop offset=".367" stop-color="#CE4C06"/><stop offset=".375" stop-color="#CF4D07"/><stop offset=".383" stop-color="#CF4E07"/><stop offset=".391" stop-color="#D04F07"/><stop offset=".398" stop-color="#D04F07"/><stop offset=".406" stop-color="#D15007"/><stop offset=".414" stop-color="#D25107"/><stop offset=".422" stop-color="#D25207"/><stop offset=".43" stop-color="#D35207"/><stop offset=".438" stop-color="#D35307"/><stop offset=".445" stop-color="#D45408"/><stop offset=".453" stop-color="#D45508"/><stop offset=".461" stop-color="#D55508"/><stop offset=".469" stop-color="#D55608"/><stop offset=".477" stop-color="#D65708"/><stop offset=".484" stop-color="#D75808"/><stop offset=".492" stop-color="#D75808"/><stop offset=".5" stop-color="#D85908"/><stop offset=".508" stop-color="#D85A08"/><stop offset=".516" stop-color="#D95B09"/><stop offset=".523" stop-color="#D95B09"/><stop offset=".531" stop-color="#DA5C09"/><stop offset=".539" stop-color="#DA5D09"/><stop offset=".547" stop-color="#DB5E09"/><stop offset=".555" stop-color="#DC5E09"/><stop offset=".563" stop-color="#DC5F09"/><stop offset=".57" stop-color="#DD6009"/><stop offset=".578" stop-color="#DD6109"/><stop offset=".586" stop-color="#DE610A"/><stop offset=".594" stop-color="#DE620A"/><stop offset=".602" stop-color="#DF630A"/><stop offset=".609" stop-color="#E0640A"/><stop offset=".617" stop-color="#E0640A"/><stop offset=".625" stop-color="#E1650A"/><stop offset=".633" stop-color="#E1660A"/><stop offset=".641" stop-color="#E2670A"/><stop offset=".648" stop-color="#E2670A"/><stop offset=".656" stop-color="#E3680B"/><stop offset=".664" stop-color="#E3690B"/><stop offset=".672" stop-color="#E4690B"/><stop offset=".68" stop-color="#E56A0B"/><stop offset=".688" stop-color="#E56B0B"/><stop offset=".695" stop-color="#E66C0B"/><stop offset=".703" stop-color="#E66C0B"/><stop offset=".711" stop-color="#E76D0B"/><stop offset=".719" stop-color="#E76E0B"/><stop offset=".727" stop-color="#E86F0C"/><stop offset=".734" stop-color="#E86F0C"/><stop offset=".742" stop-color="#E9700C"/><stop offset=".75" stop-color="#EA710C"/><stop offset=".758" stop-color="#EA720C"/><stop offset=".766" stop-color="#EB720C"/><stop offset=".771" stop-color="#EB730C"/><stop offset=".773" stop-color="#EC740C"/><stop offset=".781" stop-color="#EC740C"/><stop offset=".789" stop-color="#EC750C"/><stop offset=".797" stop-color="#ED750D"/><stop offset=".805" stop-color="#EE760D"/><stop offset=".813" stop-color="#EE770D"/><stop offset=".875" stop-color="#EF780D"/><stop offset="1" stop-color="#EF780D"/></linearGradient><linearGradient id="g" x1="526.8" x2="1102.1" y1="7929.65" y2="7929.65" gradientTransform="matrix(.11615 0 0 .11586 69.233 -723.737)" gradientUnits="userSpaceOnUse"><stop offset="0" stop-color="#B32801"/><stop offset=".008" stop-color="#B32801"/><stop offset=".016" stop-color="#B42901"/><stop offset=".023" stop-color="#B42A01"/><stop offset=".031" stop-color="#B52A01"/><stop offset=".039" stop-color="#B52B01"/><stop offset=".047" stop-color="#B62B02"/><stop offset=".055" stop-color="#B62C02"/><stop offset=".063" stop-color="#B72D02"/><stop offset=".07" stop-color="#B72D02"/><stop offset=".078" stop-color="#B72E02"/><stop offset=".086" stop-color="#B82F02"/><stop offset=".094" stop-color="#B82F02"/><stop offset=".102" stop-color="#B93002"/><stop offset=".109" stop-color="#B93002"/><stop offset=".117" stop-color="#BA3102"/><stop offset=".125" stop-color="#BA3202"/><stop offset=".133" stop-color="#BB3203"/><stop offset=".141" stop-color="#BB3303"/><stop offset=".148" stop-color="#BC3403"/><stop offset=".156" stop-color="#BC3403"/><stop offset=".164" stop-color="#BD3503"/><stop offset=".172" stop-color="#BD3503"/><stop offset=".18" stop-color="#BE3603"/><stop offset=".188" stop-color="#BE3703"/><stop offset=".195" stop-color="#BE3703"/><stop offset=".203" stop-color="#BF3803"/><stop offset=".211" stop-color="#BF3903"/><stop offset=".219" stop-color="#C03904"/><stop offset=".227" stop-color="#C03A04"/><stop offset=".234" stop-color="#C13A04"/><stop offset=".242" stop-color="#C13B04"/><stop offset=".25" stop-color="#C23C04"/><stop offset=".258" stop-color="#C23C04"/><stop offset=".266" stop-color="#C33D04"/><stop offset=".273" stop-color="#C33E04"/><stop offset=".281" stop-color="#C43E04"/><stop offset=".289" stop-color="#C43F04"/><stop offset=".297" stop-color="#C53F05"/><stop offset=".305" stop-color="#C54005"/><stop offset=".313" stop-color="#C54105"/><stop offset=".32" stop-color="#C64105"/><stop offset=".328" stop-color="#C64205"/><stop offset=".336" stop-color="#C74305"/><stop offset=".344" stop-color="#C74305"/><stop offset=".352" stop-color="#C84405"/><stop offset=".359" stop-color="#C84405"/><stop offset=".367" stop-color="#C94505"/><stop offset=".375" stop-color="#C94605"/><stop offset=".383" stop-color="#CA4606"/><stop offset=".391" stop-color="#CA4706"/><stop offset=".398" stop-color="#CB4806"/><stop offset=".406" stop-color="#CB4806"/><stop offset=".414" stop-color="#CC4906"/><stop offset=".422" stop-color="#CC4906"/><stop offset=".43" stop-color="#CD4A06"/><stop offset=".438" stop-color="#CD4B06"/><stop offset=".445" stop-color="#CD4B06"/><stop offset=".453" stop-color="#CE4C06"/><stop offset=".461" stop-color="#CE4D06"/><stop offset=".469" stop-color="#CF4D07"/><stop offset=".477" stop-color="#CF4E07"/><stop offset=".484" stop-color="#D04F07"/><stop offset=".492" stop-color="#D04F07"/><stop offset=".5" stop-color="#D15007"/><stop offset=".508" stop-color="#D15007"/><stop offset=".516" stop-color="#D25107"/><stop offset=".523" stop-color="#D25207"/><stop offset=".531" stop-color="#D35207"/><stop offset=".539" stop-color="#D35307"/><stop offset=".547" stop-color="#D45408"/><stop offset=".555" stop-color="#D45408"/><stop offset=".563" stop-color="#D45508"/><stop offset=".57" stop-color="#D55508"/><stop offset=".578" stop-color="#D55608"/><stop offset=".586" stop-color="#D65708"/><stop offset=".594" stop-color="#D65708"/><stop offset=".602" stop-color="#D75808"/><stop offset=".609" stop-color="#D75908"/><stop offset=".617" stop-color="#D85908"/><stop offset=".625" stop-color="#D85A08"/><stop offset=".633" stop-color="#D95A09"/><stop offset=".641" stop-color="#D95B09"/><stop offset=".648" stop-color="#DA5C09"/><stop offset=".656" stop-color="#DA5C09"/><stop offset=".664" stop-color="#DB5D09"/><stop offset=".672" stop-color="#DB5E09"/><stop offset=".68" stop-color="#DC5E09"/><stop offset=".688" stop-color="#DC5F09"/><stop offset=".695" stop-color="#DC5F09"/><stop offset=".703" stop-color="#DD6009"/><stop offset=".711" stop-color="#DD6109"/><stop offset=".719" stop-color="#DE610A"/><stop offset=".727" stop-color="#DE620A"/><stop offset=".734" stop-color="#DF630A"/><stop offset=".742" stop-color="#DF630A"/><stop offset=".75" stop-color="#E0640A"/><stop offset=".758" stop-color="#E0640A"/><stop offset=".766" stop-color="#E1650A"/><stop offset=".773" stop-color="#E1660A"/><stop offset=".781" stop-color="#E2660A"/><stop offset=".789" stop-color="#E2670A"/><stop offset=".797" stop-color="#E3680B"/><stop offset=".805" stop-color="#E3680B"/><stop offset=".813" stop-color="#E3690B"/><stop offset=".82" stop-color="#E4690B"/><stop offset=".828" stop-color="#E46A0B"/><stop offset=".836" stop-color="#E56B0B"/><stop offset=".844" stop-color="#E56B0B"/><stop offset=".852" stop-color="#E66C0B"/><stop offset=".859" stop-color="#E66D0B"/><stop offset=".867" stop-color="#E76D0B"/><stop offset=".875" stop-color="#E76E0B"/><stop offset=".883" stop-color="#E86E0C"/><stop offset=".891" stop-color="#E86F0C"/><stop offset=".898" stop-color="#E9700C"/><stop offset=".906" stop-color="#E9700C"/><stop offset=".914" stop-color="#EA710C"/><stop offset=".922" stop-color="#EA720C"/><stop offset=".93" stop-color="#EA720C"/><stop offset=".938" stop-color="#EB730C"/><stop offset=".945" stop-color="#EB730C"/><stop offset=".953" stop-color="#EC740C"/><stop offset=".961" stop-color="#EC750C"/><stop offset=".969" stop-color="#ED750D"/><stop offset=".977" stop-color="#ED760D"/><stop offset=".984" stop-color="#EE770D"/><stop offset=".992" stop-color="#EE770D"/><stop offset="1" stop-color="#EF780D"/></linearGradient><linearGradient id="j" x1=".7" x2="971.6" y1="-7058.03" y2="-7058.03" gradientTransform="matrix(.11615 0 0 -.11586 69.233 -636.61)" gradientUnits="userSpaceOnUse"><stop offset="0" stop-color="#7F2801"/><stop offset=".063" stop-color="#7F2801"/><stop offset=".066" stop-color="#802801"/><stop offset=".07" stop-color="#802801"/><stop offset=".074" stop-color="#812801"/><stop offset=".078" stop-color="#832801"/><stop offset=".082" stop-color="#842801"/><stop offset=".086" stop-color="#852801"/><stop offset=".09" stop-color="#862801"/><stop offset=".094" stop-color="#872801"/><stop offset=".098" stop-color="#882801"/><stop offset=".102" stop-color="#892801"/><stop offset=".105" stop-color="#8B2801"/><stop offset=".109" stop-color="#8C2801"/><stop offset=".113" stop-color="#8D2801"/><stop offset=".117" stop-color="#8E2801"/><stop offset=".121" stop-color="#8F2801"/><stop offset=".125" stop-color="#902801"/><stop offset=".129" stop-color="#922801"/><stop offset=".133" stop-color="#932801"/><stop offset=".137" stop-color="#942801"/><stop offset=".141" stop-color="#952801"/><stop offset=".145" stop-color="#962801"/><stop offset=".148" stop-color="#972801"/><stop offset=".152" stop-color="#982801"/><stop offset=".156" stop-color="#9A2801"/><stop offset=".16" stop-color="#9B2801"/><stop offset=".164" stop-color="#9C2801"/><stop offset=".168" stop-color="#9D2801"/><stop offset=".172" stop-color="#9E2801"/><stop offset=".176" stop-color="#9F2801"/><stop offset=".18" stop-color="#A12801"/><stop offset=".184" stop-color="#A22801"/><stop offset=".188" stop-color="#A32801"/><stop offset=".191" stop-color="#A42801"/><stop offset=".195" stop-color="#A52801"/><stop offset=".199" stop-color="#A62801"/><stop offset=".203" stop-color="#A72801"/><stop offset=".207" stop-color="#A92801"/><stop offset=".211" stop-color="#AA2801"/><stop offset=".215" stop-color="#AB2801"/><stop offset=".219" stop-color="#AC2801"/><stop offset=".223" stop-color="#AD2801"/><stop offset=".227" stop-color="#AE2801"/><stop offset=".23" stop-color="#B02801"/><stop offset=".234" stop-color="#B12801"/><stop offset=".238" stop-color="#B22801"/><stop offset=".242" stop-color="#B32801"/><stop offset=".246" stop-color="#B42901"/><stop offset=".25" stop-color="#B42A01"/><stop offset=".254" stop-color="#B52B01"/><stop offset=".258" stop-color="#B62B02"/><stop offset=".262" stop-color="#B62C02"/><stop offset=".266" stop-color="#B72D02"/><stop offset=".27" stop-color="#B72E02"/><stop offset=".273" stop-color="#B82F02"/><stop offset=".277" stop-color="#B93002"/><stop offset=".281" stop-color="#B93102"/><stop offset=".285" stop-color="#BA3102"/><stop offset=".289" stop-color="#BB3203"/><stop offset=".293" stop-color="#BB3303"/><stop offset=".297" stop-color="#BC3403"/><stop offset=".301" stop-color="#BD3503"/><stop offset=".305" stop-color="#BD3603"/><stop offset=".309" stop-color="#BE3603"/><stop offset=".313" stop-color="#BE3703"/><stop offset=".316" stop-color="#BF3803"/><stop offset=".32" stop-color="#C03904"/><stop offset=".324" stop-color="#C03A04"/><stop offset=".328" stop-color="#C13B04"/><stop offset=".332" stop-color="#C23B04"/><stop offset=".336" stop-color="#C23C04"/><stop offset=".34" stop-color="#C33D04"/><stop offset=".344" stop-color="#C33E04"/><stop offset=".348" stop-color="#C43F04"/><stop offset=".352" stop-color="#C54005"/><stop offset=".355" stop-color="#C54105"/><stop offset=".359" stop-color="#C64105"/><stop offset=".363" stop-color="#C74205"/><stop offset=".367" stop-color="#C74305"/><stop offset=".371" stop-color="#C84405"/><stop offset=".375" stop-color="#C94505"/><stop offset=".379" stop-color="#C94605"/><stop offset=".383" stop-color="#CA4606"/><stop offset=".387" stop-color="#CA4706"/><stop offset=".391" stop-color="#CB4806"/><stop offset=".395" stop-color="#CC4906"/><stop offset=".398" stop-color="#CC4A06"/><stop offset=".402" stop-color="#CD4B06"/><stop offset=".406" stop-color="#CE4C06"/><stop offset=".41" stop-color="#CE4C06"/><stop offset=".414" stop-color="#CF4D07"/><stop offset=".418" stop-color="#CF4E07"/><stop offset=".422" stop-color="#D04F07"/><stop offset=".426" stop-color="#D15007"/><stop offset=".43" stop-color="#D15107"/><stop offset=".434" stop-color="#D25107"/><stop offset=".438" stop-color="#D35207"/><stop offset=".441" stop-color="#D35307"/><stop offset=".445" stop-color="#D45408"/><stop offset=".449" stop-color="#D55508"/><stop offset=".453" stop-color="#D55608"/><stop offset=".457" stop-color="#D65708"/><stop offset=".461" stop-color="#D65708"/><stop offset=".465" stop-color="#D75808"/><stop offset=".469" stop-color="#D85908"/><stop offset=".473" stop-color="#D85A08"/><stop offset=".477" stop-color="#D95B09"/><stop offset=".48" stop-color="#DA5C09"/><stop offset=".484" stop-color="#DA5C09"/><stop offset=".488" stop-color="#DB5D09"/><stop offset=".492" stop-color="#DC5E09"/><stop offset=".496" stop-color="#DC5F09"/><stop offset=".5" stop-color="#DD6009"/><stop offset=".504" stop-color="#DD6109"/><stop offset=".508" stop-color="#DE620A"/><stop offset=".512" stop-color="#DF620A"/><stop offset=".516" stop-color="#DF630A"/><stop offset=".52" stop-color="#E0640A"/><stop offset=".523" stop-color="#E1650A"/><stop offset=".527" stop-color="#E1660A"/><stop offset=".531" stop-color="#E2670A"/><stop offset=".535" stop-color="#E2670B"/><stop offset=".539" stop-color="#E3680B"/><stop offset=".543" stop-color="#E4690B"/><stop offset=".547" stop-color="#E46A0B"/><stop offset=".551" stop-color="#E56B0B"/><stop offset=".555" stop-color="#E66C0B"/><stop offset=".559" stop-color="#E66D0B"/><stop offset=".563" stop-color="#E76D0B"/><stop offset=".566" stop-color="#E86E0C"/><stop offset=".57" stop-color="#E86F0C"/><stop offset=".574" stop-color="#E9700C"/><stop offset=".578" stop-color="#E9710C"/><stop offset=".582" stop-color="#EA720C"/><stop offset=".586" stop-color="#EB720C"/><stop offset=".59" stop-color="#EB730C"/><stop offset=".594" stop-color="#EC740C"/><stop offset=".598" stop-color="#ED750D"/><stop offset=".602" stop-color="#ED760D"/><stop offset=".605" stop-color="#EE770D"/><stop offset=".609" stop-color="#EF780D"/><stop offset=".625" stop-color="#EF780D"/><stop offset=".75" stop-color="#EF780D"/><stop offset="1" stop-color="#EF780D"/></linearGradient><linearGradient id="m" x1="70.143" x2="486.095" y1="-3471.519" y2="-3106.448" gradientTransform="matrix(.11615 0 0 -.11586 69.233 -202.826)" gradientUnits="userSpaceOnUse"><stop offset="0" stop-color="#B32801"/><stop offset=".25" stop-color="#B32801"/><stop offset=".281" stop-color="#B32801"/><stop offset=".297" stop-color="#B32801"/><stop offset=".305" stop-color="#B32901"/><stop offset=".313" stop-color="#B42901"/><stop offset=".32" stop-color="#B52A01"/><stop offset=".328" stop-color="#B52B01"/><stop offset=".336" stop-color="#B62C02"/><stop offset=".344" stop-color="#B62D02"/><stop offset=".352" stop-color="#B72D02"/><stop offset=".359" stop-color="#B82E02"/><stop offset=".367" stop-color="#B82F02"/><stop offset=".375" stop-color="#B93002"/><stop offset=".383" stop-color="#B93102"/><stop offset=".391" stop-color="#BA3102"/><stop offset=".398" stop-color="#BB3203"/><stop offset=".406" stop-color="#BB3303"/><stop offset=".414" stop-color="#BC3403"/><stop offset=".422" stop-color="#BC3503"/><stop offset=".43" stop-color="#BD3503"/><stop offset=".43" stop-color="#BE3603"/><stop offset=".438" stop-color="#BE3703"/><stop offset=".445" stop-color="#BE3703"/><stop offset=".453" stop-color="#BF3803"/><stop offset=".461" stop-color="#BF3904"/><stop offset=".469" stop-color="#C03A04"/><stop offset=".477" stop-color="#C13A04"/><stop offset=".484" stop-color="#C13B04"/><stop offset=".492" stop-color="#C23C04"/><stop offset=".5" stop-color="#C33D04"/><stop offset=".508" stop-color="#C33E04"/><stop offset=".516" stop-color="#C43E04"/><stop offset=".523" stop-color="#C43F04"/><stop offset=".531" stop-color="#C54005"/><stop offset=".539" stop-color="#C64105"/><stop offset=".547" stop-color="#C64205"/><stop offset=".555" stop-color="#C74205"/><stop offset=".563" stop-color="#C74305"/><stop offset=".57" stop-color="#C84405"/><stop offset=".57" stop-color="#C84405"/><stop offset=".578" stop-color="#C94505"/><stop offset=".586" stop-color="#C94605"/><stop offset=".594" stop-color="#CA4606"/><stop offset=".602" stop-color="#CA4706"/><stop offset=".609" stop-color="#CB4806"/><stop offset=".617" stop-color="#CC4906"/><stop offset=".625" stop-color="#CC4A06"/><stop offset=".633" stop-color="#CD4A06"/><stop offset=".641" stop-color="#CD4B06"/><stop offset=".648" stop-color="#CE4C06"/><stop offset=".656" stop-color="#CF4D07"/><stop offset=".664" stop-color="#CF4E07"/><stop offset=".672" stop-color="#D04E07"/><stop offset=".68" stop-color="#D04F07"/><stop offset=".688" stop-color="#D15007"/><stop offset=".695" stop-color="#D25107"/><stop offset=".703" stop-color="#D25207"/><stop offset=".711" stop-color="#D35207"/><stop offset=".719" stop-color="#D35307"/><stop offset=".727" stop-color="#D45408"/><stop offset=".734" stop-color="#D55508"/><stop offset=".742" stop-color="#D55608"/><stop offset=".75" stop-color="#D65708"/><stop offset=".758" stop-color="#D65708"/><stop offset=".766" stop-color="#D75808"/><stop offset=".773" stop-color="#D85908"/><stop offset=".781" stop-color="#D85A08"/><stop offset=".789" stop-color="#D95B09"/><stop offset=".797" stop-color="#D95B09"/><stop offset=".805" stop-color="#DA5C09"/><stop offset=".813" stop-color="#DB5D09"/><stop offset=".82" stop-color="#DB5E09"/><stop offset=".828" stop-color="#DC5F09"/><stop offset=".836" stop-color="#DC5F09"/><stop offset=".844" stop-color="#DD6009"/><stop offset=".852" stop-color="#DE610A"/><stop offset=".859" stop-color="#DE620A"/><stop offset=".867" stop-color="#DF630A"/><stop offset=".875" stop-color="#DF630A"/><stop offset=".883" stop-color="#E0640A"/><stop offset=".891" stop-color="#E1650A"/><stop offset=".898" stop-color="#E1660A"/><stop offset=".906" stop-color="#E2670A"/><stop offset=".914" stop-color="#E2670B"/><stop offset=".922" stop-color="#E3680B"/><stop offset=".93" stop-color="#E4690B"/><stop offset=".938" stop-color="#E46A0B"/><stop offset=".945" stop-color="#E56B0B"/><stop offset=".953" stop-color="#E56B0B"/><stop offset=".961" stop-color="#E66C0B"/><stop offset=".969" stop-color="#E76D0B"/><stop offset=".977" stop-color="#E76E0B"/><stop offset=".984" stop-color="#E86F0C"/><stop offset=".992" stop-color="#E86F0C"/><stop offset="1" stop-color="#E9700C"/></linearGradient><linearGradient id="p" x1="383.885" x2="384.003" y1="-3564.141" y2="-3564.111" gradientTransform="matrix(.11615 0 0 -.11586 69.233 -202.826)" gradientUnits="userSpaceOnUse"><stop offset="0" stop-color="#C03904"/><stop offset=".016" stop-color="#C03A04"/><stop offset=".031" stop-color="#C13B04"/><stop offset=".047" stop-color="#C23C04"/><stop offset=".063" stop-color="#C23D04"/><stop offset=".078" stop-color="#C33E04"/><stop offset=".094" stop-color="#C43E04"/><stop offset=".109" stop-color="#C53F05"/><stop offset=".125" stop-color="#C54005"/><stop offset=".141" stop-color="#C64105"/><stop offset=".156" stop-color="#C74205"/><stop offset=".172" stop-color="#C74305"/><stop offset=".188" stop-color="#C84405"/><stop offset=".203" stop-color="#C94505"/><stop offset=".206" stop-color="#CA4606"/><stop offset=".219" stop-color="#CA4706"/><stop offset=".234" stop-color="#CA4706"/><stop offset=".25" stop-color="#CB4806"/><stop offset=".266" stop-color="#CC4906"/><stop offset=".281" stop-color="#CC4A06"/><stop offset=".297" stop-color="#CD4B06"/><stop offset=".313" stop-color="#CE4C06"/><stop offset=".328" stop-color="#CF4D07"/><stop offset=".344" stop-color="#CF4E07"/><stop offset=".359" stop-color="#D04F07"/><stop offset=".375" stop-color="#D15007"/><stop offset=".391" stop-color="#D25107"/><stop offset=".406" stop-color="#D25207"/><stop offset=".422" stop-color="#D35307"/><stop offset=".438" stop-color="#D45408"/><stop offset=".453" stop-color="#D45508"/><stop offset=".469" stop-color="#D55608"/><stop offset=".484" stop-color="#D65708"/><stop offset=".5" stop-color="#D75808"/><stop offset=".516" stop-color="#D75908"/><stop offset=".531" stop-color="#D85A08"/><stop offset=".547" stop-color="#D95A09"/><stop offset=".563" stop-color="#D95B09"/><stop offset=".578" stop-color="#DA5C09"/><stop offset=".594" stop-color="#DB5D09"/><stop offset=".609" stop-color="#DC5E09"/><stop offset=".625" stop-color="#DC5F09"/><stop offset=".641" stop-color="#DD6009"/><stop offset=".656" stop-color="#DE610A"/><stop offset=".672" stop-color="#DF620A"/><stop offset=".688" stop-color="#DF630A"/><stop offset=".703" stop-color="#E0640A"/><stop offset=".719" stop-color="#E1650A"/><stop offset=".734" stop-color="#E1660A"/><stop offset=".75" stop-color="#E2670A"/><stop offset=".766" stop-color="#E3680B"/><stop offset=".781" stop-color="#E4690B"/><stop offset=".794" stop-color="#E46A0B"/><stop offset=".797" stop-color="#E56A0B"/><stop offset=".813" stop-color="#E56B0B"/><stop offset=".828" stop-color="#E66C0B"/><stop offset=".844" stop-color="#E66D0B"/><stop offset=".859" stop-color="#E76E0B"/><stop offset=".875" stop-color="#E86F0C"/><stop offset=".891" stop-color="#E9700C"/><stop offset=".906" stop-color="#E9710C"/><stop offset=".922" stop-color="#EA720C"/><stop offset=".938" stop-color="#EB730C"/><stop offset=".953" stop-color="#EC740C"/><stop offset=".969" stop-color="#EC750C"/><stop offset=".984" stop-color="#ED760D"/><stop offset="1" stop-color="#EE760D"/></linearGradient><linearGradient id="s" x1="11.062" x2="453.465" y1="2914.621" y2="3030.737" gradientTransform="matrix(.11615 0 0 .11586 69.233 -145.359)" gradientUnits="userSpaceOnUse"><stop offset="0" stop-color="#C03904"/><stop offset=".008" stop-color="#C03904"/><stop offset=".016" stop-color="#C03A04"/><stop offset=".023" stop-color="#C13A04"/><stop offset=".031" stop-color="#C13B04"/><stop offset=".039" stop-color="#C13B04"/><stop offset=".047" stop-color="#C23C04"/><stop offset=".055" stop-color="#C23C04"/><stop offset=".063" stop-color="#C23D04"/><stop offset=".067" stop-color="#C33D04"/><stop offset=".07" stop-color="#C33D04"/><stop offset=".078" stop-color="#C33E04"/><stop offset=".086" stop-color="#C43E04"/><stop offset=".094" stop-color="#C43F04"/><stop offset=".102" stop-color="#C43F04"/><stop offset=".109" stop-color="#C54005"/><stop offset=".117" stop-color="#C54005"/><stop offset=".125" stop-color="#C54105"/><stop offset=".133" stop-color="#C64105"/><stop offset=".141" stop-color="#C64205"/><stop offset=".148" stop-color="#C74205"/><stop offset=".156" stop-color="#C74305"/><stop offset=".164" stop-color="#C74305"/><stop offset=".172" stop-color="#C84405"/><stop offset=".18" stop-color="#C84405"/><stop offset=".188" stop-color="#C84505"/><stop offset=".195" stop-color="#C94505"/><stop offset=".203" stop-color="#C94605"/><stop offset=".211" stop-color="#CA4606"/><stop offset=".219" stop-color="#CA4706"/><stop offset=".227" stop-color="#CA4706"/><stop offset=".234" stop-color="#CB4806"/><stop offset=".242" stop-color="#CB4806"/><stop offset=".25" stop-color="#CC4906"/><stop offset=".258" stop-color="#CC4906"/><stop offset=".266" stop-color="#CC4A06"/><stop offset=".273" stop-color="#CD4A06"/><stop offset=".281" stop-color="#CD4B06"/><stop offset=".289" stop-color="#CD4B06"/><stop offset=".297" stop-color="#CE4C06"/><stop offset=".305" stop-color="#CE4C06"/><stop offset=".313" stop-color="#CF4D07"/><stop offset=".32" stop-color="#CF4D07"/><stop offset=".328" stop-color="#CF4E07"/><stop offset=".336" stop-color="#D04E07"/><stop offset=".344" stop-color="#D04F07"/><stop offset=".352" stop-color="#D04F07"/><stop offset=".359" stop-color="#D15007"/><stop offset=".367" stop-color="#D15007"/><stop offset=".375" stop-color="#D25107"/><stop offset=".383" stop-color="#D25107"/><stop offset=".391" stop-color="#D25207"/><stop offset=".398" stop-color="#D35207"/><stop offset=".406" stop-color="#D35307"/><stop offset=".414" stop-color="#D35307"/><stop offset=".422" stop-color="#D45408"/><stop offset=".43" stop-color="#D45408"/><stop offset=".438" stop-color="#D55508"/><stop offset=".445" stop-color="#D55508"/><stop offset=".453" stop-color="#D55608"/><stop offset=".461" stop-color="#D65608"/><stop offset=".469" stop-color="#D65708"/><stop offset=".477" stop-color="#D65708"/><stop offset=".484" stop-color="#D75808"/><stop offset=".492" stop-color="#D75808"/><stop offset=".5" stop-color="#D85908"/><stop offset=".508" stop-color="#D85908"/><stop offset=".516" stop-color="#D85A08"/><stop offset=".523" stop-color="#D95A09"/><stop offset=".531" stop-color="#D95B09"/><stop offset=".539" stop-color="#D95B09"/><stop offset=".547" stop-color="#DA5C09"/><stop offset=".555" stop-color="#DA5C09"/><stop offset=".563" stop-color="#DB5D09"/><stop offset=".57" stop-color="#DB5D09"/><stop offset=".578" stop-color="#DB5E09"/><stop offset=".586" stop-color="#DC5E09"/><stop offset=".594" stop-color="#DC5F09"/><stop offset=".602" stop-color="#DC5F09"/><stop offset=".609" stop-color="#DD6009"/><stop offset=".617" stop-color="#DD6009"/><stop offset=".625" stop-color="#DE610A"/><stop offset=".633" stop-color="#DE610A"/><stop offset=".641" stop-color="#DE620A"/><stop offset=".648" stop-color="#DF620A"/><stop offset=".656" stop-color="#DF630A"/><stop offset=".664" stop-color="#DF630A"/><stop offset=".672" stop-color="#E0640A"/><stop offset=".68" stop-color="#E0640A"/><stop offset=".688" stop-color="#E1650A"/><stop offset=".695" stop-color="#E1650A"/><stop offset=".703" stop-color="#E1660A"/><stop offset=".711" stop-color="#E2660A"/><stop offset=".719" stop-color="#E2670A"/><stop offset=".727" stop-color="#E2670B"/><stop offset=".734" stop-color="#E3680B"/><stop offset=".742" stop-color="#E3680B"/><stop offset=".75" stop-color="#E4690B"/><stop offset=".758" stop-color="#E4690B"/><stop offset=".766" stop-color="#E46A0B"/><stop offset=".773" stop-color="#E56A0B"/><stop offset=".781" stop-color="#E56B0B"/><stop offset=".789" stop-color="#E66C0B"/><stop offset=".797" stop-color="#E66C0B"/><stop offset=".805" stop-color="#E66D0B"/><stop offset=".813" stop-color="#E76D0B"/><stop offset=".82" stop-color="#E76E0B"/><stop offset=".828" stop-color="#E76E0B"/><stop offset=".836" stop-color="#E86F0C"/><stop offset=".844" stop-color="#E86F0C"/><stop offset=".852" stop-color="#E9700C"/><stop offset=".859" stop-color="#E9700C"/><stop offset=".867" stop-color="#E9710C"/><stop offset=".875" stop-color="#EA710C"/><stop offset=".883" stop-color="#EA720C"/><stop offset=".891" stop-color="#EA720C"/><stop offset=".898" stop-color="#EB730C"/><stop offset=".906" stop-color="#EB730C"/><stop offset=".914" stop-color="#EC740C"/><stop offset=".922" stop-color="#EC740C"/><stop offset=".93" stop-color="#EC750C"/><stop offset=".933" stop-color="#ED750D"/><stop offset=".938" stop-color="#ED750D"/><stop offset=".945" stop-color="#ED760D"/><stop offset=".953" stop-color="#ED760D"/><stop offset=".961" stop-color="#EE770D"/><stop offset=".969" stop-color="#EE770D"/><stop offset="1" stop-color="#EF780D"/></linearGradient><linearGradient id="v" x1="99.397" x2="623.707" y1="2997.419" y2="3204.943" gradientTransform="matrix(.11615 0 0 .11586 69.233 -145.359)" gradientUnits="userSpaceOnUse"><stop offset="0" stop-color="#BC3403"/><stop offset=".008" stop-color="#BC3403"/><stop offset=".016" stop-color="#BD3503"/><stop offset=".023" stop-color="#BD3603"/><stop offset=".031" stop-color="#BE3703"/><stop offset=".039" stop-color="#BF3803"/><stop offset=".047" stop-color="#BF3803"/><stop offset=".055" stop-color="#C03904"/><stop offset=".063" stop-color="#C13A04"/><stop offset=".07" stop-color="#C13B04"/><stop offset=".078" stop-color="#C23C04"/><stop offset=".086" stop-color="#C33D04"/><stop offset=".094" stop-color="#C33E04"/><stop offset=".102" stop-color="#C43F04"/><stop offset=".109" stop-color="#C54005"/><stop offset=".117" stop-color="#C54005"/><stop offset=".125" stop-color="#C64105"/><stop offset=".133" stop-color="#C74205"/><stop offset=".141" stop-color="#C74305"/><stop offset=".148" stop-color="#C84405"/><stop offset=".156" stop-color="#C94505"/><stop offset=".164" stop-color="#C94605"/><stop offset=".172" stop-color="#CA4706"/><stop offset=".176" stop-color="#CB4806"/><stop offset=".18" stop-color="#CB4806"/><stop offset=".188" stop-color="#CB4906"/><stop offset=".195" stop-color="#CC4906"/><stop offset=".203" stop-color="#CD4A06"/><stop offset=".211" stop-color="#CD4B06"/><stop offset=".219" stop-color="#CE4C06"/><stop offset=".227" stop-color="#CF4D07"/><stop offset=".234" stop-color="#CF4E07"/><stop offset=".242" stop-color="#D04F07"/><stop offset=".25" stop-color="#D15007"/><stop offset=".258" stop-color="#D15107"/><stop offset=".266" stop-color="#D25107"/><stop offset=".273" stop-color="#D35207"/><stop offset=".281" stop-color="#D35307"/><stop offset=".289" stop-color="#D45408"/><stop offset=".297" stop-color="#D55508"/><stop offset=".305" stop-color="#D55608"/><stop offset=".313" stop-color="#D65708"/><stop offset=".32" stop-color="#D75808"/><stop offset=".328" stop-color="#D75908"/><stop offset=".336" stop-color="#D85908"/><stop offset=".344" stop-color="#D95A09"/><stop offset=".352" stop-color="#D95B09"/><stop offset=".359" stop-color="#DA5C09"/><stop offset=".367" stop-color="#DB5D09"/><stop offset=".375" stop-color="#DB5E09"/><stop offset=".383" stop-color="#DC5F09"/><stop offset=".391" stop-color="#DD6009"/><stop offset=".398" stop-color="#DD6109"/><stop offset=".406" stop-color="#DE610A"/><stop offset=".414" stop-color="#DF620A"/><stop offset=".422" stop-color="#DF630A"/><stop offset=".43" stop-color="#E0640A"/><stop offset=".438" stop-color="#E1650A"/><stop offset=".445" stop-color="#E1660A"/><stop offset=".453" stop-color="#E2670A"/><stop offset=".461" stop-color="#E3680B"/><stop offset=".469" stop-color="#E3690B"/><stop offset=".477" stop-color="#E4690B"/><stop offset=".484" stop-color="#E56A0B"/><stop offset=".492" stop-color="#E56B0B"/><stop offset=".5" stop-color="#E66C0B"/><stop offset=".508" stop-color="#E76D0B"/><stop offset=".516" stop-color="#E76E0B"/><stop offset=".523" stop-color="#E86F0C"/><stop offset=".531" stop-color="#E9700C"/><stop offset=".539" stop-color="#E9710C"/><stop offset=".547" stop-color="#EA710C"/><stop offset=".555" stop-color="#EB720C"/><stop offset=".563" stop-color="#EB730C"/><stop offset=".57" stop-color="#EC740C"/><stop offset=".578" stop-color="#ED750D"/><stop offset=".586" stop-color="#ED760D"/><stop offset=".594" stop-color="#EE770D"/><stop offset=".625" stop-color="#EF780D"/><stop offset=".75" stop-color="#EF780D"/><stop offset=".824" stop-color="#EF780D"/><stop offset="1" stop-color="#EF780D"/></linearGradient><linearGradient id="z" x1="420.054" x2="501.446" y1="-3209.648" y2="-3209.768" gradientTransform="matrix(.11615 0 0 -.11586 69.233 -202.826)" gradientUnits="userSpaceOnUse"><stop offset="0" stop-color="#B32801"/><stop offset=".001" stop-color="#B32801"/><stop offset=".5" stop-color="#B32801"/><stop offset=".563" stop-color="#B32801"/><stop offset=".57" stop-color="#B32801"/><stop offset=".574" stop-color="#B32901"/><stop offset=".578" stop-color="#B42901"/><stop offset=".582" stop-color="#B42A01"/><stop offset=".586" stop-color="#B52A01"/><stop offset=".59" stop-color="#B52B01"/><stop offset=".594" stop-color="#B62B02"/><stop offset=".598" stop-color="#B62C02"/><stop offset=".602" stop-color="#B62D02"/><stop offset=".605" stop-color="#B72D02"/><stop offset=".609" stop-color="#B72E02"/><stop offset=".613" stop-color="#B82E02"/><stop offset=".617" stop-color="#B82F02"/><stop offset=".621" stop-color="#B93002"/><stop offset=".625" stop-color="#B93002"/><stop offset=".629" stop-color="#BA3102"/><stop offset=".633" stop-color="#BA3102"/><stop offset=".637" stop-color="#BA3203"/><stop offset=".641" stop-color="#BB3303"/><stop offset=".645" stop-color="#BB3303"/><stop offset=".648" stop-color="#BC3403"/><stop offset=".652" stop-color="#BC3403"/><stop offset=".656" stop-color="#BD3503"/><stop offset=".66" stop-color="#BD3503"/><stop offset=".664" stop-color="#BE3603"/><stop offset=".668" stop-color="#BE3703"/><stop offset=".672" stop-color="#BE3703"/><stop offset=".676" stop-color="#BF3803"/><stop offset=".68" stop-color="#BF3803"/><stop offset=".684" stop-color="#C03904"/><stop offset=".688" stop-color="#C03A04"/><stop offset=".691" stop-color="#C13A04"/><stop offset=".695" stop-color="#C13B04"/><stop offset=".699" stop-color="#C23B04"/><stop offset=".703" stop-color="#C23C04"/><stop offset=".707" stop-color="#C23D04"/><stop offset=".711" stop-color="#C33D04"/><stop offset=".715" stop-color="#C33E04"/><stop offset=".719" stop-color="#C43E04"/><stop offset=".723" stop-color="#C43F04"/><stop offset=".727" stop-color="#C54005"/><stop offset=".73" stop-color="#C54005"/><stop offset=".734" stop-color="#C64105"/><stop offset=".738" stop-color="#C64105"/><stop offset=".742" stop-color="#C64205"/><stop offset=".746" stop-color="#C74305"/><stop offset=".75" stop-color="#C74305"/><stop offset=".754" stop-color="#C84405"/><stop offset=".758" stop-color="#C84405"/><stop offset=".762" stop-color="#C94505"/><stop offset=".766" stop-color="#C94505"/><stop offset=".77" stop-color="#C94606"/><stop offset=".773" stop-color="#CA4706"/><stop offset=".777" stop-color="#CA4706"/><stop offset=".781" stop-color="#CB4806"/><stop offset=".785" stop-color="#CB4806"/><stop offset=".789" stop-color="#CC4906"/><stop offset=".793" stop-color="#CC4A06"/><stop offset=".797" stop-color="#CD4A06"/><stop offset=".801" stop-color="#CD4B06"/><stop offset=".805" stop-color="#CD4B06"/><stop offset=".809" stop-color="#CE4C06"/><stop offset=".813" stop-color="#CE4D06"/><stop offset=".816" stop-color="#CF4D07"/><stop offset=".82" stop-color="#CF4E07"/><stop offset=".824" stop-color="#D04E07"/><stop offset=".828" stop-color="#D04F07"/><stop offset=".832" stop-color="#D15007"/><stop offset=".836" stop-color="#D15007"/><stop offset=".84" stop-color="#D15107"/><stop offset=".844" stop-color="#D25107"/><stop offset=".848" stop-color="#D25207"/><stop offset=".852" stop-color="#D35307"/><stop offset=".855" stop-color="#D35307"/><stop offset=".859" stop-color="#D45408"/><stop offset=".863" stop-color="#D45408"/><stop offset=".867" stop-color="#D55508"/><stop offset=".871" stop-color="#D55508"/><stop offset=".875" stop-color="#D55608"/><stop offset=".879" stop-color="#D65708"/><stop offset=".883" stop-color="#D65708"/><stop offset=".887" stop-color="#D75808"/><stop offset=".891" stop-color="#D75808"/><stop offset=".895" stop-color="#D85908"/><stop offset=".898" stop-color="#D85A08"/><stop offset=".902" stop-color="#D95A09"/><stop offset=".906" stop-color="#D95B09"/><stop offset=".91" stop-color="#D95B09"/><stop offset=".914" stop-color="#DA5C09"/><stop offset=".918" stop-color="#DA5D09"/><stop offset=".922" stop-color="#DB5D09"/><stop offset=".926" stop-color="#DB5E09"/><stop offset=".93" stop-color="#DC5E09"/><stop offset=".934" stop-color="#DC5F09"/><stop offset=".938" stop-color="#DD6009"/><stop offset=".941" stop-color="#DD6009"/><stop offset=".945" stop-color="#DD610A"/><stop offset=".949" stop-color="#DE610A"/><stop offset=".953" stop-color="#DE620A"/><stop offset=".957" stop-color="#DF630A"/><stop offset=".961" stop-color="#DF630A"/><stop offset=".965" stop-color="#E0640A"/><stop offset=".969" stop-color="#E0640A"/><stop offset=".973" stop-color="#E1650A"/><stop offset=".977" stop-color="#E1650A"/><stop offset=".98" stop-color="#E1660A"/><stop offset=".984" stop-color="#E2670A"/><stop offset=".988" stop-color="#E2670A"/><stop offset=".992" stop-color="#E3680B"/><stop offset=".996" stop-color="#E3680B"/><stop offset="1" stop-color="#E4690B"/></linearGradient><linearGradient id="C" x1="719.285" x2="2063.604" y1="-5737.446" y2="-5927.768" gradientTransform="matrix(.11615 0 0 -.11586 69.233 -492.015)" gradientUnits="userSpaceOnUse"><stop offset="0" stop-color="#C54005"/><stop offset=".008" stop-color="#C54005"/><stop offset=".016" stop-color="#C64105"/><stop offset=".023" stop-color="#C74205"/><stop offset=".031" stop-color="#C74305"/><stop offset=".039" stop-color="#C84405"/><stop offset=".047" stop-color="#C94505"/><stop offset=".055" stop-color="#C94606"/><stop offset=".063" stop-color="#CA4706"/><stop offset=".067" stop-color="#CB4806"/><stop offset=".07" stop-color="#CB4806"/><stop offset=".078" stop-color="#CC4906"/><stop offset=".086" stop-color="#CC4A06"/><stop offset=".094" stop-color="#CD4B06"/><stop offset=".102" stop-color="#CE4C06"/><stop offset=".109" stop-color="#CF4D07"/><stop offset=".117" stop-color="#CF4E07"/><stop offset=".125" stop-color="#D04F07"/><stop offset=".133" stop-color="#D15007"/><stop offset=".141" stop-color="#D25107"/><stop offset=".148" stop-color="#D25207"/><stop offset=".156" stop-color="#D35307"/><stop offset=".164" stop-color="#D45408"/><stop offset=".172" stop-color="#D55508"/><stop offset=".18" stop-color="#D55608"/><stop offset=".188" stop-color="#D65708"/><stop offset=".195" stop-color="#D75808"/><stop offset=".203" stop-color="#D75908"/><stop offset=".211" stop-color="#D85A08"/><stop offset=".219" stop-color="#D95B09"/><stop offset=".227" stop-color="#DA5C09"/><stop offset=".234" stop-color="#DA5D09"/><stop offset=".242" stop-color="#DB5E09"/><stop offset=".25" stop-color="#DC5F09"/><stop offset=".258" stop-color="#DD6009"/><stop offset=".266" stop-color="#DD6109"/><stop offset=".273" stop-color="#DE620A"/><stop offset=".281" stop-color="#DF630A"/><stop offset=".289" stop-color="#E0640A"/><stop offset=".297" stop-color="#E0650A"/><stop offset=".305" stop-color="#E1660A"/><stop offset=".313" stop-color="#E2670A"/><stop offset=".32" stop-color="#E3680B"/><stop offset=".328" stop-color="#E3690B"/><stop offset=".336" stop-color="#E4690B"/><stop offset=".344" stop-color="#E56A0B"/><stop offset=".352" stop-color="#E56B0B"/><stop offset=".359" stop-color="#E66C0B"/><stop offset=".367" stop-color="#E76D0B"/><stop offset=".375" stop-color="#E86E0C"/><stop offset=".383" stop-color="#E86F0C"/><stop offset=".391" stop-color="#E9700C"/><stop offset=".398" stop-color="#EA710C"/><stop offset=".406" stop-color="#EB720C"/><stop offset=".414" stop-color="#EB730C"/><stop offset=".422" stop-color="#EC740C"/><stop offset=".43" stop-color="#ED750D"/><stop offset=".438" stop-color="#EE760D"/><stop offset=".445" stop-color="#EE770D"/><stop offset=".449" stop-color="#EE790E"/><stop offset=".453" stop-color="#ED7A10"/><stop offset=".457" stop-color="#EB7B12"/><stop offset=".461" stop-color="#E97C14"/><stop offset=".465" stop-color="#E77D16"/><stop offset=".469" stop-color="#E67E18"/><stop offset=".473" stop-color="#E47F1A"/><stop offset=".477" stop-color="#E2801D"/><stop offset=".48" stop-color="#E1811F"/><stop offset=".484" stop-color="#DF8221"/><stop offset=".488" stop-color="#DD8323"/><stop offset=".492" stop-color="#DC8425"/><stop offset=".496" stop-color="#DA8527"/><stop offset=".5" stop-color="#D88629"/><stop offset=".504" stop-color="#D6872B"/><stop offset=".508" stop-color="#D5882E"/><stop offset=".512" stop-color="#D38930"/><stop offset=".516" stop-color="#D18B32"/><stop offset=".52" stop-color="#D08C34"/><stop offset=".523" stop-color="#CE8D36"/><stop offset=".527" stop-color="#CC8E38"/><stop offset=".531" stop-color="#CA8F3A"/><stop offset=".535" stop-color="#C9903C"/><stop offset=".539" stop-color="#C7913E"/><stop offset=".543" stop-color="#C59241"/><stop offset=".547" stop-color="#C49343"/><stop offset=".551" stop-color="#C29445"/><stop offset=".555" stop-color="#C09547"/><stop offset=".559" stop-color="#BE9649"/><stop offset=".563" stop-color="#BD974B"/><stop offset=".566" stop-color="#BB984D"/><stop offset=".57" stop-color="#B9994F"/><stop offset=".574" stop-color="#B89B52"/><stop offset=".578" stop-color="#B69C54"/><stop offset=".582" stop-color="#B49D56"/><stop offset=".586" stop-color="#B29E58"/><stop offset=".59" stop-color="#B19F5A"/><stop offset=".594" stop-color="#AFA05C"/><stop offset=".598" stop-color="#ADA15E"/><stop offset=".602" stop-color="#ACA260"/><stop offset=".605" stop-color="#AAA362"/><stop offset=".609" stop-color="#A8A465"/><stop offset=".613" stop-color="#A6A567"/><stop offset=".617" stop-color="#A5A669"/><stop offset=".621" stop-color="#A3A76B"/><stop offset=".625" stop-color="#A1A86D"/><stop offset=".629" stop-color="#A0A96F"/><stop offset=".633" stop-color="#9EAA71"/><stop offset=".637" stop-color="#9CAC73"/><stop offset=".641" stop-color="#9BAD76"/><stop offset=".645" stop-color="#99AE78"/><stop offset=".648" stop-color="#97AF7A"/><stop offset=".652" stop-color="#95B07C"/><stop offset=".656" stop-color="#94B17E"/><stop offset=".66" stop-color="#92B280"/><stop offset=".664" stop-color="#90B382"/><stop offset=".668" stop-color="#8FB484"/><stop offset=".672" stop-color="#8DB586"/><stop offset=".676" stop-color="#8BB689"/><stop offset=".68" stop-color="#89B78B"/><stop offset=".684" stop-color="#88B88D"/><stop offset=".688" stop-color="#86B98F"/><stop offset=".691" stop-color="#84BA91"/><stop offset=".695" stop-color="#83BB93"/><stop offset=".699" stop-color="#81BD95"/><stop offset=".703" stop-color="#7FBE97"/><stop offset=".707" stop-color="#7DBF99"/><stop offset=".711" stop-color="#7CC09C"/><stop offset=".715" stop-color="#7AC19E"/><stop offset=".719" stop-color="#78C2A0"/><stop offset=".723" stop-color="#77C3A2"/><stop offset=".727" stop-color="#75C4A4"/><stop offset=".73" stop-color="#73C5A6"/><stop offset=".734" stop-color="#71C6A8"/><stop offset=".738" stop-color="#70C7AA"/><stop offset=".742" stop-color="#6EC8AD"/><stop offset=".746" stop-color="#6CC9AF"/><stop offset=".75" stop-color="#6BCAB1"/><stop offset=".754" stop-color="#69CBB3"/><stop offset=".758" stop-color="#67CCB5"/><stop offset=".762" stop-color="#65CEB7"/><stop offset=".766" stop-color="#64CFB9"/><stop offset=".77" stop-color="#62D0BB"/><stop offset=".773" stop-color="#60D1BD"/><stop offset=".777" stop-color="#5FD2C0"/><stop offset=".781" stop-color="#5DD3C2"/><stop offset=".785" stop-color="#5BD4C4"/><stop offset=".789" stop-color="#5AD5C6"/><stop offset=".793" stop-color="#58D6C8"/><stop offset=".797" stop-color="#56D7CA"/><stop offset=".801" stop-color="#54D8CC"/><stop offset=".805" stop-color="#53D9CE"/><stop offset=".809" stop-color="#51DAD1"/><stop offset=".813" stop-color="#4FDBD3"/><stop offset=".816" stop-color="#4EDCD5"/><stop offset=".82" stop-color="#4CDED7"/><stop offset=".824" stop-color="#4ADFD9"/><stop offset=".828" stop-color="#48E0DB"/><stop offset=".832" stop-color="#47E1DD"/><stop offset=".836" stop-color="#45E2DF"/><stop offset=".84" stop-color="#43E3E1"/><stop offset=".844" stop-color="#42E4E4"/><stop offset=".848" stop-color="#40E5E6"/><stop offset=".852" stop-color="#3EE6E8"/><stop offset=".855" stop-color="#3DE7EA"/><stop offset=".859" stop-color="#3BE8EC"/><stop offset=".875" stop-color="#3BE8EC"/><stop offset=".933" stop-color="#3BE8EC"/><stop offset="1" stop-color="#3BE8EC"/></linearGradient><linearGradient id="F" x1="908.058" x2="908.742" y1="-5594.302" y2="-5594.398" gradientTransform="matrix(.11615 0 0 -.11586 69.233 -492.015)" gradientUnits="userSpaceOnUse"><stop offset="0" stop-color="#C74205"/><stop offset=".004" stop-color="#C74305"/><stop offset=".008" stop-color="#C74305"/><stop offset=".012" stop-color="#C84405"/><stop offset=".016" stop-color="#C84405"/><stop offset=".02" stop-color="#C94505"/><stop offset=".023" stop-color="#C94505"/><stop offset=".027" stop-color="#C94605"/><stop offset=".031" stop-color="#CA4606"/><stop offset=".035" stop-color="#CA4706"/><stop offset=".039" stop-color="#CA4706"/><stop offset=".043" stop-color="#CB4806"/><stop offset=".047" stop-color="#CB4806"/><stop offset=".051" stop-color="#CC4906"/><stop offset=".055" stop-color="#CC4906"/><stop offset=".059" stop-color="#CC4A06"/><stop offset=".063" stop-color="#CD4A06"/><stop offset=".066" stop-color="#CD4B06"/><stop offset=".07" stop-color="#CD4B06"/><stop offset=".074" stop-color="#CE4C06"/><stop offset=".078" stop-color="#CE4C06"/><stop offset=".082" stop-color="#CF4D07"/><stop offset=".086" stop-color="#CF4D07"/><stop offset=".09" stop-color="#CF4E07"/><stop offset=".094" stop-color="#D04E07"/><stop offset=".098" stop-color="#D04F07"/><stop offset=".102" stop-color="#D14F07"/><stop offset=".105" stop-color="#D15007"/><stop offset=".109" stop-color="#D15007"/><stop offset=".113" stop-color="#D25107"/><stop offset=".117" stop-color="#D25207"/><stop offset=".121" stop-color="#D25207"/><stop offset=".125" stop-color="#D35307"/><stop offset=".129" stop-color="#D35307"/><stop offset=".133" stop-color="#D45408"/><stop offset=".137" stop-color="#D45408"/><stop offset=".141" stop-color="#D45508"/><stop offset=".145" stop-color="#D55508"/><stop offset=".148" stop-color="#D55608"/><stop offset=".152" stop-color="#D55608"/><stop offset=".156" stop-color="#D65708"/><stop offset=".16" stop-color="#D65708"/><stop offset=".164" stop-color="#D75808"/><stop offset=".168" stop-color="#D75808"/><stop offset=".172" stop-color="#D75908"/><stop offset=".176" stop-color="#D85908"/><stop offset=".18" stop-color="#D85A08"/><stop offset=".184" stop-color="#D85A09"/><stop offset=".188" stop-color="#D95B09"/><stop offset=".191" stop-color="#D95B09"/><stop offset=".195" stop-color="#DA5C09"/><stop offset=".199" stop-color="#DA5C09"/><stop offset=".203" stop-color="#DA5D09"/><stop offset=".207" stop-color="#DB5D09"/><stop offset=".211" stop-color="#DB5E09"/><stop offset=".215" stop-color="#DC5E09"/><stop offset=".219" stop-color="#DC5F09"/><stop offset=".223" stop-color="#DC5F09"/><stop offset=".227" stop-color="#DD6009"/><stop offset=".23" stop-color="#DD6009"/><stop offset=".234" stop-color="#DD610A"/><stop offset=".238" stop-color="#DE610A"/><stop offset=".242" stop-color="#DE620A"/><stop offset=".246" stop-color="#DF620A"/><stop offset=".25" stop-color="#DF630A"/><stop offset=".254" stop-color="#DF630A"/><stop offset=".258" stop-color="#E0640A"/><stop offset=".262" stop-color="#E0640A"/><stop offset=".266" stop-color="#E0650A"/><stop offset=".27" stop-color="#E1650A"/><stop offset=".273" stop-color="#E1660A"/><stop offset=".277" stop-color="#E2660A"/><stop offset=".281" stop-color="#E2670A"/><stop offset=".285" stop-color="#E2670A"/><stop offset=".289" stop-color="#E3680B"/><stop offset=".293" stop-color="#E3680B"/><stop offset=".297" stop-color="#E4690B"/><stop offset=".301" stop-color="#E4690B"/><stop offset=".305" stop-color="#E46A0B"/><stop offset=".309" stop-color="#E56A0B"/><stop offset=".313" stop-color="#E56B0B"/><stop offset=".316" stop-color="#E56B0B"/><stop offset=".32" stop-color="#E66C0B"/><stop offset=".324" stop-color="#E66C0B"/><stop offset=".328" stop-color="#E76D0B"/><stop offset=".332" stop-color="#E76D0B"/><stop offset=".336" stop-color="#E76E0B"/><stop offset=".34" stop-color="#E86E0C"/><stop offset=".344" stop-color="#E86F0C"/><stop offset=".348" stop-color="#E86F0C"/><stop offset=".352" stop-color="#E9700C"/><stop offset=".355" stop-color="#E9700C"/><stop offset=".359" stop-color="#EA710C"/><stop offset=".363" stop-color="#EA710C"/><stop offset=".367" stop-color="#EA720C"/><stop offset=".371" stop-color="#EB720C"/><stop offset=".375" stop-color="#EB730C"/><stop offset=".379" stop-color="#EB730C"/><stop offset=".383" stop-color="#EC740C"/><stop offset=".387" stop-color="#EC740C"/><stop offset=".391" stop-color="#ED750D"/><stop offset=".395" stop-color="#ED760D"/><stop offset=".398" stop-color="#ED760D"/><stop offset=".402" stop-color="#EE770D"/><stop offset=".406" stop-color="#EE770D"/><stop offset=".41" stop-color="#EF780D"/><stop offset=".414" stop-color="#EF780D"/><stop offset=".418" stop-color="#ED790F"/><stop offset=".422" stop-color="#EC7A11"/><stop offset=".426" stop-color="#EA7B13"/><stop offset=".43" stop-color="#E87C15"/><stop offset=".434" stop-color="#E67D18"/><stop offset=".438" stop-color="#E57F1A"/><stop offset=".441" stop-color="#E3801C"/><stop offset=".445" stop-color="#E1811E"/><stop offset=".449" stop-color="#DF8220"/><stop offset=".453" stop-color="#DE8323"/><stop offset=".457" stop-color="#DC8425"/><stop offset=".461" stop-color="#DA8527"/><stop offset=".465" stop-color="#D88629"/><stop offset=".469" stop-color="#D6872B"/><stop offset=".473" stop-color="#D5882D"/><stop offset=".477" stop-color="#D38930"/><stop offset=".48" stop-color="#D18B32"/><stop offset=".484" stop-color="#CF8C34"/><stop offset=".488" stop-color="#CE8D36"/><stop offset=".492" stop-color="#CC8E38"/><stop offset=".496" stop-color="#CA8F3B"/><stop offset=".5" stop-color="#C8903D"/><stop offset=".504" stop-color="#C7913F"/><stop offset=".508" stop-color="#C59241"/><stop offset=".512" stop-color="#C39343"/><stop offset=".516" stop-color="#C19445"/><stop offset=".52" stop-color="#C09648"/><stop offset=".523" stop-color="#BE974A"/><stop offset=".527" stop-color="#BC984C"/><stop offset=".531" stop-color="#BA994E"/><stop offset=".535" stop-color="#B99A50"/><stop offset=".539" stop-color="#B79B52"/><stop offset=".543" stop-color="#B59C55"/><stop offset=".547" stop-color="#B39D57"/><stop offset=".551" stop-color="#B29E59"/><stop offset=".555" stop-color="#B09F5B"/><stop offset=".559" stop-color="#AEA05D"/><stop offset=".563" stop-color="#ACA260"/><stop offset=".566" stop-color="#AAA362"/><stop offset=".57" stop-color="#A9A464"/><stop offset=".574" stop-color="#A7A566"/><stop offset=".578" stop-color="#A5A668"/><stop offset=".582" stop-color="#A3A76A"/><stop offset=".586" stop-color="#A2A86D"/><stop offset=".59" stop-color="#A0A96F"/><stop offset=".594" stop-color="#9EAA71"/><stop offset=".598" stop-color="#9CAB73"/><stop offset=".602" stop-color="#9BAD75"/><stop offset=".605" stop-color="#99AE78"/><stop offset=".609" stop-color="#97AF7A"/><stop offset=".613" stop-color="#95B07C"/><stop offset=".617" stop-color="#94B17E"/><stop offset=".621" stop-color="#92B280"/><stop offset=".625" stop-color="#90B382"/><stop offset=".629" stop-color="#8EB485"/><stop offset=".633" stop-color="#8DB587"/><stop offset=".637" stop-color="#8BB689"/><stop offset=".641" stop-color="#89B78B"/><stop offset=".645" stop-color="#87B98D"/><stop offset=".648" stop-color="#85BA90"/><stop offset=".652" stop-color="#84BB92"/><stop offset=".656" stop-color="#82BC94"/><stop offset=".66" stop-color="#80BD96"/><stop offset=".664" stop-color="#7EBE98"/><stop offset=".668" stop-color="#7DBF9A"/><stop offset=".672" stop-color="#7BC09D"/><stop offset=".676" stop-color="#79C19F"/><stop offset=".68" stop-color="#77C2A1"/><stop offset=".684" stop-color="#76C4A3"/><stop offset=".688" stop-color="#74C5A5"/><stop offset=".691" stop-color="#72C6A7"/><stop offset=".695" stop-color="#70C7AA"/><stop offset=".699" stop-color="#6FC8AC"/><stop offset=".703" stop-color="#6DC9AE"/><stop offset=".707" stop-color="#6BCAB0"/><stop offset=".711" stop-color="#69CBB2"/><stop offset=".715" stop-color="#68CCB5"/><stop offset=".719" stop-color="#66CDB7"/><stop offset=".723" stop-color="#64CEB9"/><stop offset=".727" stop-color="#62D0BB"/><stop offset=".73" stop-color="#61D1BD"/><stop offset=".734" stop-color="#5FD2BF"/><stop offset=".738" stop-color="#5DD3C2"/><stop offset=".742" stop-color="#5BD4C4"/><stop offset=".746" stop-color="#59D5C6"/><stop offset=".75" stop-color="#58D6C8"/><stop offset=".754" stop-color="#56D7CA"/><stop offset=".758" stop-color="#54D8CD"/><stop offset=".762" stop-color="#52D9CF"/><stop offset=".766" stop-color="#51DBD1"/><stop offset=".77" stop-color="#4FDCD3"/><stop offset=".773" stop-color="#4DDDD5"/><stop offset=".777" stop-color="#4BDED7"/><stop offset=".781" stop-color="#4ADFDA"/><stop offset=".785" stop-color="#48E0DC"/><stop offset=".789" stop-color="#46E1DE"/><stop offset=".793" stop-color="#44E2E0"/><stop offset=".797" stop-color="#43E3E2"/><stop offset=".801" stop-color="#41E4E5"/><stop offset=".805" stop-color="#3FE5E7"/><stop offset=".809" stop-color="#3DE7E9"/><stop offset=".813" stop-color="#3CE8EB"/><stop offset=".859" stop-color="#3BE8EB"/><stop offset=".875" stop-color="#3BE8EC"/><stop offset="1" stop-color="#3BE8EC"/></linearGradient></defs><g clip-path="url(#a)"><path fill="#fff" d="M77.098 200.96c1.578-.323 43.976-8.667 43.105.49-1.676 2.882-4.125 6.44-6.32 8.616-2.207 2.18-3.461 3.235-5.645 5.18-2.172 1.945-4.66 4.008-7.015 5.992-3.961.473-10.164 1.168-13.567 1.746-3.406.582-4.043 1.23-6.031 3.176.234.5.352.871.71 1.332 2.509.418 5.204 2.711 7.665 2.645 2.465-.07 3.602-.93 6.32-1.809 2.72-.883 7.258-2.676 10.153-4.055 2.89-1.378 4.773-3.847 7.629-5.398 2.859-1.555 6.554-3.187 9.933-3.094 2.067-.476 4.574-1.508 6.293-2.515 1.734-1.008 2.106-1.473 3.942-2.618 1.843-1.148 5.003-3.406 6.84-4.832 1.835-1.425 2.937-2.804 4.585-4.242 3.36-.601 6.715-1.367 10.051-2.14 10.836-8.922 19.606-15.61 31.777-22.48-4.191.995-6.816 1.948-11.011 2.98.476-1.856.758-3.454 1.441-5.38.684-1.921 2.672-6.242 3.32-7.585.653-1.344-.23.242.489-.594-4.098.64.316-.29-5.528.27-5.843.554-17.609-.223-25.297 2.847-7.656 3.047-16.425 9.11-24.093 12.965-.36-2.05-.508-4.45-.801-6.637-5.934-.57-11.824-1.23-17.781-1.808-5.114 3.36-10.817 7.691-15.996 10.797-5.18 3.105-13.555 7.683-17.586 9.722-4.02 2.04-1.532.149-4.356 1.563 2.477 1.496 4.485 3.27 6.774 4.867m0 0"/></g><g clip-path="url(#b)"><g clip-path="url(#c)"><path fill="url(#d)" d="M123.871 215.71v-6.429h11.64v6.43Zm0 0"/></g></g><g clip-path="url(#e)"><g clip-path="url(#f)"><path fill="url(#g)" d="M130.422 176.77v36.46h66.824v-36.46Zm0 0"/></g></g><g clip-path="url(#h)"><g clip-path="url(#i)"><path fill="url(#j)" d="M69.313 209.977V152.3H182.09v57.676Zm0 0"/></g></g><path fill="#fff" d="M113.617 170.7c2.59-1.981 3.992-4.66 3.703-8.02-2.425 4-5.715 6.5-10.582 6.293 6.227-1.59 7.145-10.313 12.254-10.832 6.633-.672-1.902 12.117-5.375 12.558m0 0"/><g clip-path="url(#k)"><g clip-path="url(#l)"><path fill="url(#m)" d="M73.984 195.527v-41.804h48.75v41.804Zm0 0"/></g></g><g clip-path="url(#n)"><g clip-path="url(#o)"><path fill="url(#p)" d="M113.824 210.125v-.012h.012v.012Zm0 0"/></g></g><g clip-path="url(#q)"><g clip-path="url(#r)"><path fill="url(#s)" d="M69.559 195.98v13.985h51.246V195.98Zm0 0"/></g></g><g clip-path="url(#t)"><g clip-path="url(#u)"><path fill="url(#v)" d="M81.707 199.582v31.246h58.043v-31.246Zm0 0"/></g></g><g clip-path="url(#w)"><path fill="#b32801" fill-opacity=".2" d="M139.738 199.594c-6.05 4.402-8.422 12.594-15.078 15.965a12.5 12.5 0 0 1-3.984 1.183c-2.196 2.04-4.38 3.324-7.211 4.332-.035.035-.07.059-.094.094-2.219 2.016-3.726 3.531-7.621 4.691h-.012c-.008 0-.031.012-.043.012.012 0 .012 0 .024-.012l-.328.07c-1.067.22-4.18 1.516-5.563 2.235-.012 0-.023.012-.023.012-.465.176-.801.383-1.114.582-.28.172-.546.347-.882.508-.746.336-1.36.613-2.106.836-1.02.289-1.996.53-3.02.636h-.011a9 9 0 0 1-1.102.047c-2.265-.035-4.273-.582-6.226-1.52 0 0-.012 0-.024-.011-.57-.29-1.113-.602-1.672-.938-.347-.21-.734-.476-1.07-.73-.07-.129-.047-.242.129-.336.207-.117.73.14.977.172.382.058.754.14 1.136.176 1.465.152 2.907.265 4.39.183 2.962-.172 5.786-.797 8.587-1.793.637-.234 1.242-.523 1.855-.8-.972 1.136-2.066 1.91-3.449 2.468 6.145-1.867 11.223-4.508 15.426-9.433a22.4 22.4 0 0 1-1.453 3.941c.187-.277.594-.488.836-.672.34-.265.629-.5.941-.742.652-.52 1.29-1.031 1.93-1.54 1.183-.964 2.3-1.972 3.449-2.968-.059.383-.14.778-.184 1.149.149-.278.997-.567 1.172-.672.547-.313.918-.512 1.371-.778.79-.472 1.508-.925 2.22-1.492a16.2 16.2 0 0 0 3.425-3.836c-.07.797-.3 1.492-.723 2.176 1.13-.707 2.188-1.402 3.035-2.43.348-.418.59-.894.895-1.336.996-1.48 2.125-2.8 3.45-3.996-.212.696-.407 1.391-.618 2.086 1.023-1.261 1.988-2.57 3.125-3.754 1.059-1.101 2.23-2.004 3.496-2.863.242-.16.512-.348.79-.496.116-.059.245-.105.37-.152 0-.012.395-.172.5-.22.012 0 .012 0 .012-.01.012 0 .012 0 .023-.013 0 0 .024-.011.047-.011m0 0"/></g><g clip-path="url(#x)"><g clip-path="url(#y)"><path fill="url(#z)" d="M118.027 172.691v-7.277h9.446v7.277Zm0 0"/></g></g><path fill="#b32801" fill-opacity=".3" d="M124.383 178.496c-3.473.254-6.762.914-10.047 2.05-.035.013-.059.024-.082.024-.195.07-.371.137-.559.207-.183.07-.382.141-.566.223-1 .402-2 .82-2.965 1.297-3.89 1.91-7.582 4.137-11.3 6.348-.024.011-.06.035-.094.046-4.98 2.852-9.872 5.239-15.434 6.743-.27.07-.535.129-.84.187-3.043.566-6.074.73-9.164.566 8.457-.324 16.031-3.199 23.336-7.343 5.191-2.957 10.375-5.774 14.613-10.07-.199.5-.406 1.007-.605 1.507 3.254-1.472 6.402-2.992 9.351-5.031-.394 1.137-.8 2.273-1.172 3.406.454-.695 1.79-.82 2.473-.844 1.16-.046 2.067.13 3.055.684m0 0"/><path fill="#fff" fill-opacity=".3" d="M123.395 163.852c-.024.011-.012.046-.036.046-.218-8.863-3.597-10.789-10.195-4.03.043-.048.09-.106.125-.165 7.469-8.668 11.047-3.695 10.106 4.149m0 0"/><path fill="#fff" fill-opacity=".1" d="M108.457 217.066c-3.078 2.57-6.574 4.067-10.207 5.711 1.754-.441 3.508-.867 5.273-1.285-2.87 1.551-5.39 2.93-8.75 2.492.547.38.907.832 1.153 1.446a28.6 28.6 0 0 0-5.668-2.04c.476.223.824.536 1.113.962-3.625-1.805-7.164-1.528-9.687 1.82.394-.984.964-1.727 1.789-2.399 0 0 .011-.011.023-.011 1.719-1.121 3.684-1.621 5.692-1.852 2-.234 3.878-.222 5.867-.293a58 58 0 0 0 4.738-1.828c.312-.14.629-.277.93-.418.164-.07.324-.148.476-.219a56 56 0 0 0 6.387-3.64c.152-.09.293-.196.43-.301a55 55 0 0 0 2.207-1.586c-1.078 1.703-2.356 3.2-3.739 4.656.614-.496 1.243-.926 1.973-1.215M189.8 176.469c-.382.242-2.042.254-2.405.496-1.473 1.008-1.067.707-3.079 3.383-.996.152-1.773.222-2.808.476-.719.176-1.836.43-2.531.848.218-.211.394-.43.464-.742-1.394.3-2.636.773-3.937 1.402a99 99 0 0 0-7.54 4.078c-.917.543-1.776 1.098-2.487 1.899a8.6 8.6 0 0 0 .722-1.645c-4.554 1.762-8.758 4.066-12.8 6.79.152-.767.3-1.528.464-2.306-2.347 1.786-4.59 3.684-6.691 5.758-1.961 1.934-3.715 4.055-5.402 6.211-.918 1.18-2.079 2.14-3.168 3.094-1.094.937-2.059 1.715-3.125 2.687-1.465 1.32-2.79 2.907-4.461 4.008-.07.047-.106.059-.2.106-.09.058-.277.16-.394.218 2.148-1.98 6.933-6.894 7.297-7.253.441-.45.812-.95 1.219-1.446 1.859-2.273 3.914-4.394 5.832-6.617a87 87 0 0 0 2.625-3.223c.707-.914 1.414-1.851 2.113-2.765 2.066-2.692 4.191-5.332 6.722-7.578 1.36-1.22 2.825-2.157 4.348-3.164.824-.543 1.719-.961 2.637-1.38.914-.417 1.95-.706 2.832-1.202-2.613 1.632-4.738 3.277-6.574 5.78 4.379-3.487 8.886-5.933 14.242-7.6-2.094 1.066-4.426 2.421-5.75 4.39.441-.496 1.937-.754 2.39-.914 1.188-.43 1.989-.73 3.043-1.078.594-.2 1.13-.336 1.696-.5.57-.16 1.07-.371 1.629-.532-.012.52-.453.903-.688 1.344-.09.184-.113.371-.101.578.011.094.043.176.136.223.094.043.2.043.317.035.672-.07 1.289-.328 1.914-.547.234-.082.465-.148.699-.219 1.473-.417 2.984-.824 4.445-1.242a59 59 0 0 0 2.14-.636c.685-.22 1.302-.485 1.962-.637.789-.149 1.488-.36 2.254-.578m0 0"/><path fill="#b32801" fill-opacity=".2" d="M176.559 188.645s.011-.012 0 0q.016 0 0 0m0 0"/><path fill="#b32801" fill-opacity=".4" d="M184.945 195.398c-.812-.054-18.34 3.57-28.156 6.258-.172.047-.348.094-.512.14-.16.044-.324.09-.476.138a.3.3 0 0 1-.102.023c-.117.035-.234.07-.351.094l-.578.172c-.512.152-.989.3-1.407.441-.047.012-.093.024-.129.047-2.554.855-5.074 1.715-7.539 2.559h-.011c-.16.058-.325.105-.485.164-.187.058-.363.129-.547.183a31.2 31.2 0 0 1 8.176-9.289 17.6 17.6 0 0 0-2.16 4.008c3.566-3.488 7.55-6.234 12-8.492a15.6 15.6 0 0 0-1.895 2.793c3.844-2.285 7.645-4.473 11.801-6.13-.66.555-1.3 1.122-1.914 1.723 1.89-.773 3.961-.902 5.875-1.597h.024c-.5.57-1.09 1.75-1.895 1.82h-.031c.023.012.054.024.078.035.117.047.234.102.351.149.372.164.743.324 1.102.488.012 0 .024.012.035.023 2.52 1.133 6.621 2.848 8.746 4.25m0 0"/><path fill="#fff" fill-opacity=".3" d="M178.535 153.691c-.316.149-.652.207-.988.266-.883.137-1.777.254-2.672.348-.348.035-.719.07-1.012.265-.16.106-.289.243-.406.395a2.2 2.2 0 0 0-.324.508c-.047.129-.082.27-.094.406v.082c0 .047 0 .117-.023.152-.012.008-.036.02-.047.032-.024.011-.059.011-.078.023-.024 0-.036.012-.059.012s-.059.011-.07.011h-.059c-.047 0-.094.012-.14 0-.047 0-.094-.011-.125-.011a2 2 0 0 1-.247-.047 4 4 0 0 1-.394-.125c-.024-.012-.059-.024-.082-.047-.035-.024-.082-.035-.117-.059-.012-.011-.02-.011-.02-.011-.012 0-.012 0-.012-.012-.011.012-.011.012-.023.012s-.012.011-.023.011c-.012.012-.024.024-.047.024-.082.047-.176.117-.27.176a.3.3 0 0 0-.058.043c-.02.011-.032.023-.055.035-.059.035-.117.07-.164.105-.059.047-.13.082-.176.117a44 44 0 0 0-2.207-.312h-.012c-3.02-.348-6.004-.535-9.023-.14 1.23-.372 2.46-.708 3.707-1.055-6.668-.778-12.617.542-18.121 4.449.707-.856 1.394-1.856 2.312-2.528-4.066 1.508-7.898 3.547-11.93 5.121q.172-.083.348-.171c.535-.254 1.059-.512 1.59-.766.117-.047.234-.105.352-.16.113-.059.242-.117.359-.176.184-.082.36-.172.543-.266.012 0 .012-.011.023-.011.047-.012.082-.035.13-.059.011 0 .011 0 .023-.012.011 0 .023 0 .035-.011.176-.094.348-.172.512-.254 3.25-1.621 6.492-3.254 9.804-4.762.371-.176.743-.336 1.114-.5.242-.101.476-.207.718-.312.176-.079.352-.149.536-.23.535-.231 1.082-.442 1.66-.614.047-.012.199-.059.34-.094.042-.012.078-.023.125-.035.011-.012.035-.012.058-.024h.012c.012 0 .023-.011.047-.011 1.406-.36 2.789-.707 4.238-.867l.305-.036c.277-.035.554-.058.836-.093.113-.012.195-.024.336-.036.128-.023.277-.035.44-.046.349-.024.708-.043 1.06-.055.453-.024.925-.035 1.39-.024.164 0 .34 0 .524.012q.572.016 1.152.043l1.148.07.465.036c.625.047 1.254.117 1.883.187.277.024.543.055.836.09.047.012.059.012.148.023.106.012.352.047.477.059a.2.2 0 0 1 .082.012l.547.07c.371.047.742.082 1.101.129.141.02.282.031.407.043l.894.105.535.07c.2.024.547.071.711.094.16.024.278.032.383.043.102.012.024 0 .113.012.094.012.282.012.399.024h.031c.117.011.281.035.375.046.09.012.024.012.113.012h.059c.035 0 .082.012.129.012h.07a.3.3 0 0 0 .094.012c.137.011.348.023.484.035.118 0 .13 0 .223.012h.152c.078.011.22.023.395.046.195.012.43.047.683.07.141 0 .29.012.43.024.059 0 .129.012.188.012.289 0 .59 0 .894-.024m0 0"/><path fill="#b32801" fill-opacity=".2" d="M181.578 167.559c0 .011.012.011.012.023.07.148-.024.313-.117.453-.188.254-.383.496-.547.762-.07.117-.125.246-.207.36-.13.187-.34.288-.535.405-.012.012-.024.012-.024.024l-.465.254c0-.012-.023-.012-.023-.012-.094 0-.195.129-.242.164l-.012.012c-.035.023.113-.2.09-.2-.531.27-6.586 3.212-6.711 3.258-.129.06-.258.106-.383.16q-.874.37-1.742.731c-2.942 1.23-5.926 2.48-8.828 3.766-.453.199-.906.406-1.36.613-.058.023-.117.059-.187.082 2.254-2.223 4.715-4.055 7.633-5.328-5.403 1.355-10.688 3.453-15.09 6.926.234-.266.453-.532.687-.797.465-.535.93-1.043 1.414-1.555.176-.183.352-.36.524-.543.105-.117.21-.219.324-.324.024-.023.047-.059.082-.082.188-.184.371-.371.559-.555l.011-.011c.243-.243.5-.489.754-.72.211-.198.43-.394.64-.577.083-.07.161-.141.243-.211.012-.012.024-.024.035-.024q.333-.273.664-.566c-.047.023-.105.035-.152.058-.023.012-.047.012-.07.012a.7.7 0 0 1-.16.024 2 2 0 0 1-.247.023c-.242.125-.488.242-.718.371-.047.02-.082.043-.13.067-3.624 1.925-7.003 4.207-10.269 6.675-.113.09-.23.184-.347.266-.047.047-.106.082-.149.129a56 56 0 0 0-1.883 1.562c-.199.172-.406.36-.617.532-.566.5-1.148 1.02-1.719 1.53-.359.313-.718.602-1.054.938-.223.211-.43.43-.653.649-.207.222-.43.441-.629.66-.207.223-.417.453-.613.672-.199.222-.383.418-.57.629-.348.39-.695.785-1.031 1.191-.012.024-.036.035-.047.059.011-.024.023-.047.023-.07.125-.29.242-.579.371-.856.012-.012.012-.035.024-.047a1 1 0 0 0 .058-.152q.224-.504.453-1.008c.149-.336.313-.672.473-1.008.012-.035.035-.058.047-.094.07-.125.129-.265.2-.39.046-.082.081-.164.128-.246.078-.149.149-.29.219-.438.035-.058.058-.129.105-.2.082-.148.16-.288.254-.464.024-.043.047-.09.082-.137.07-.129.153-.265.235-.406.011-.012.011-.023.023-.035.008-.012.008-.023.02-.035.011-.035.035-.059.07-.125a1 1 0 0 1 .047-.082.1.1 0 0 0 .023-.047c.024-.024.035-.059.059-.094.023-.047.058-.101.082-.148 0-.012.012-.012.012-.024.011-.011.011-.023.023-.023.277-.465.578-.938.883-1.403.012-.011.012-.023.023-.046.149-.207.29-.43.442-.637.148-.219.312-.441.464-.649.079-.105.16-.21.231-.312.336-.453.687-.883 1.047-1.309.082-.105.172-.21.254-.3.394-.454.8-.883 1.23-1.313l.317-.312c.101-.09.195-.196.3-.301.012-.012.012-.012.024-.012s.012-.012.023-.023c.149-.149.301-.29.465-.438.047-.047.094-.082.125-.117.012 0 .012-.012.012-.012.012 0 .012-.011.012-.011.023-.024.082-.047.07-.07v-.012h-.035c-.012-.012-.047-.012-.07-.012-.032 0-.067 0-.102-.012-.059-.012-.153-.012-.223-.012a9.2 9.2 0 0 0-2.578.313c-.242.07-.453.14-.684.222-.57.22-1.105.497-1.628.81-.207.128-.418.269-.614.405-.105.07-.199.141-.304.211-.09.055-.172.125-.266.184-.176.129-.348.254-.523.394a5 5 0 0 1-.254.207l-.012.012c-2.625 2.215-5.285 4.266-8.2 6.047-.199.117-.386.234-.581.36-.211.128-.418.257-.63.37-.218.13-.452.258-.683.383-.023.012-.058.024-.082.047-.277.13-.558.266-.836.395-.012 0-.023.011-.035.023-1.684.73-3.344 1.356-5.121 1.852-2.547.695-5.113 1.125-7.75 1.379h-.023c-1.403.105-2.672.199-4.133.129-.047 0-.094-.012-.153-.012s-.129-.012-.207-.012c-.047-.012-.105-.012-.164-.012-.047 0-.082-.011-.129-.011-.035 0-.07-.012-.101-.012h-.281c-.06 0-.118-.012-.196-.012-.023 0-.035 0-.058-.012-.07-.011-.164-.011-.258-.023-.047 0-.09-.012-.137-.012-.07-.011-.152-.011-.234-.023-.012 0-.024 0-.035-.012-.082-.012-.172-.012-.266-.02-1.324-.128-3.402-.347-4.82-.488l-.29-.035c-.199-.023-.386-.035-.546-.058-.07-.024-.012-.07.023-.082l.137-.032c.035-.011.07-.023.117-.023.07-.012.129-.024.2-.047.023-.012.058-.012.077-.023.024 0 .047-.012.07-.012.395-.035 1.06.266 1.36.266 4.09-.047 6.18.382 9.922-2.493 2.672-2.062 6.922-5.5 10.59-6.949a14 14 0 0 0-1.926 3.395c3.543-4.149 7.48-7.313 12.348-9.813a12.5 12.5 0 0 0-1.848 3.777c5.668-6.328 11.547-12.851 19.875-15.48-1.672 1.18-3.195 2.445-4.543 3.984.477-.484 1.172-.754 1.742-1.043.742-.37 1.348-.683 2.09-1.043 1.418-.683 2.742-1.39 4.32-1.75.711-.16 1.395-.207 2.153-.265h.011c.766-.07 1.684-.102 2.485-.125-.07.054-.13.101-.2.16s-.136.117-.206.164c-.13.102-.27.207-.395.3a4 4 0 0 0-.234.184c-.059.047-.106.082-.16.13-.083.058-.165.124-.247.183-.148.117-.289.223-.441.336-.012.012-.035.023-.047.035.281.035.57.082.848.129.058.012.129.012.187.023q.328.054.672.102c.035 0 .082.012.117.023 2.23.36 4.485.836 6.75 1.278.301.054.614.125.918.183.301.059.614.117.918.176q.522.097 1.043.184c.059.011.13.023.188.035.312.058.613.105.93.152.43.067.859.125 1.288.195l1.032.141c.883.102 1.777.195 2.66.254.14.012.281.012.418.023.223.012.476-.011.687.079.301.128.602.27.895.394.336.152.672.3.976.512.079.058.172.125.243.195a.23.23 0 0 1 .105.106m0 0"/><path fill="#fff" d="M88.55 183.477c.024-.555-.07-1.11-.023-1.657.059-.554.07-.808.578-1.226 1.383-1.137 3.055-2.285 4.743-3.07-1.63 2.109-3.43 4.066-5.297 5.953m0 0"/><path fill="#b32801" fill-opacity=".2" d="M182.055 166.945c-.465 1.215-1.106 2.2-2.254 2.883-.13.07-.14-.101-.27-.035-1.367.695-2.726 1.324-4.191 1.996-.883.402-1.918 1.008-2.926 1.41-4.055 1.625-8.11 3.383-12.105 5.192 2.254-2.223 4.726-4.055 7.644-5.328-5.402 1.355-10.687 3.453-15.09 6.93 1.825-2.157 3.754-4.161 5.938-5.97-.2.094-.418.106-.63.13-7.78 3.878-14.714 9.476-20.452 15.94.695-1.796 1.972-4.366 2.879-5.85 1.695-2.77 3.343-4.59 5.39-6.872 0 0 .012-.012.024-.012.37-.265.707-.672.953-1.02.37-.507.719-.984 1.101-1.448.778-.95 1.579-1.84 2.43-2.723-.152.523-.305 1.031-.441 1.543 3.09-3.07 6.351-5.434 10.254-7.36-.72.63-1.184 1.313-1.473 2.227.09-.164.441-.266.566-.336.282-.14.477-.265.723-.406.477-.254.906-.496 1.39-.742a15.8 15.8 0 0 1 3.044-1.086c.78-.2 1.64-.281 2.406-.547.047-.012.094-.035.129-.047.453-.172.847-.207 1.324-.172a48 48 0 0 1-4.555-.754c.188-.3.524-.242.871-.175 3.73.707 7.598 1.425 11.325 2.05 1.754.293 3.336.453 5.078.453.336.024.59.024.918.13m0 0"/><g clip-path="url(#A)"><g clip-path="url(#B)"><path fill="url(#C)" d="M156.883 219.336v-75.504h148.562v75.504Zm0 0"/></g></g><g clip-path="url(#D)"><g clip-path="url(#E)"><path fill="url(#F)" d="M174.71 156.191v-.078h.071v.078Zm0 0"/></g></g></svg>